<svg width="480" height="600" viewBox="0 0 480 600" fill="none" xmlns="http://www.w3.org/2000/svg">
<mask id="path-1-inside-1" fill="white">
<path fill-rule="evenodd" clip-rule="evenodd" d="M480 0H0V285H218V600H480V0Z"/>
</mask>
<path fill-rule="evenodd" clip-rule="evenodd" d="M480 0H0V285H218V600H480V0Z" fill="#F7F7F7"/>
<path d="M0 0V-8H-8V0H0ZM480 0H488V-8H480V0ZM0 285H-8V293H0V285ZM218 285H226V277H218V285ZM218 600H210V608H218V600ZM480 600V608H488V600H480ZM0 8H480V-8H0V8ZM8 285V0H-8V285H8ZM0 293H218V277H0V293ZM210 285V600H226V285H210ZM480 592H218V608H480V592ZM472 0V600H488V0H472Z" fill="#D5D5D5" mask="url(#path-1-inside-1)"/>
<path d="M131.203 251.203C123.473 258.932 110.941 258.932 103.212 251.203L79.4142 227.405L107.405 199.414L131.203 223.212C138.932 230.941 138.932 243.473 131.203 251.203Z" fill="#D5D5D5" stroke="#D5D5D5" stroke-width="2"/>
<path d="M25 263V145H143V191H96C82.1929 191 71 202.193 71 216V263H25Z" fill="white" stroke="#D5D5D5" stroke-width="2"/>
<path d="M41.2001 169H43.0241C41.7281 165.976 40.1121 161.528 38.9121 157.848H36.2721C34.8161 161.384 33.3121 165.48 32.1441 169H33.8241C34.1441 167.992 34.4801 166.952 34.8321 165.896H40.0001C40.4001 167.016 40.8321 168.072 41.2001 169ZM37.7441 159.192C38.2721 160.888 38.8801 162.744 39.5201 164.504H35.2961C35.9361 162.696 36.6081 160.904 37.2961 159.192H37.7441ZM43.571 165.256H47.219V163.832H43.571V165.256ZM50.9056 167.608C55.7696 164.152 56.6176 163.064 56.6176 160.776C56.6176 158.36 55.3056 157.576 52.5536 157.576C51.4176 157.576 50.1856 157.784 49.2416 158.056C49.3536 158.536 49.4816 159 49.6096 159.48C50.2016 159.24 51.5136 159.048 52.4576 159.048C54.2016 159.048 54.9056 159.448 54.9056 160.888C54.9056 162.68 54.5376 163.176 48.7296 167.704V169H56.5536V167.608H50.9056Z" fill="#272727"/>
<path d="M103.212 32.7972C110.941 25.0676 123.473 25.0676 131.203 32.7972C138.932 40.5267 138.932 53.0588 131.203 60.7884L107.405 84.5858L79.4142 56.5946L103.212 32.7972Z" fill="#D5D5D5" stroke="#D5D5D5" stroke-width="2"/>
<path d="M143 139H25V21H71V68C71 81.8071 82.1929 93 96 93H143V139Z" fill="white" stroke="#D5D5D5" stroke-width="2"/>
<path d="M41.2001 125H43.0241C41.7281 121.976 40.1121 117.528 38.9121 113.848H36.2721C34.8161 117.384 33.3121 121.48 32.1441 125H33.8241C34.1441 123.992 34.4801 122.952 34.8321 121.896H40.0001C40.4001 123.016 40.8321 124.072 41.2001 125ZM37.7441 115.192C38.2721 116.888 38.8801 118.744 39.5201 120.504H35.2961C35.9361 118.696 36.6081 116.904 37.2961 115.192H37.7441ZM43.571 121.256H47.219V119.832H43.571V121.256ZM54.1216 125V113.416L49.5296 115.416L50.0096 116.728L52.5056 115.592V125H54.1216Z" fill="#272727"/>
<path d="M418.858 510.556C426.783 518.481 439.632 518.481 447.556 510.556C455.481 502.632 455.481 489.783 447.556 481.858L423.405 457.707L394.707 486.405L418.858 510.556Z" fill="#D5D5D5" stroke="#D5D5D5"/>
<path d="M279.142 510.556C271.217 518.481 258.368 518.481 250.444 510.556C242.519 502.632 242.519 489.783 250.444 481.858L274.595 457.707L303.293 486.405L279.142 510.556Z" fill="#D5D5D5" stroke="#D5D5D5"/>
<path d="M418.858 450.556C426.783 458.481 439.632 458.481 447.556 450.556C455.481 442.632 455.481 429.783 447.556 421.858L423.405 397.707L394.707 426.405L418.858 450.556Z" fill="#D5D5D5" stroke="#D5D5D5"/>
<path d="M418.858 330.556C426.783 338.481 439.632 338.481 447.556 330.556C455.481 322.632 455.481 309.783 447.556 301.858L423.405 277.707L394.707 306.405L418.858 330.556Z" fill="#D5D5D5" stroke="#D5D5D5"/>
<path d="M418.858 390.556C426.783 398.481 439.632 398.481 447.556 390.556C455.481 382.632 455.481 369.783 447.556 361.858L423.405 337.707L394.707 366.405L418.858 390.556Z" fill="#D5D5D5" stroke="#D5D5D5"/>
<path d="M279.142 450.556C271.217 458.481 258.368 458.481 250.444 450.556C242.519 442.632 242.519 429.783 250.444 421.858L274.595 397.707L303.293 426.405L279.142 450.556Z" fill="#D5D5D5" stroke="#D5D5D5"/>
<path d="M279.142 330.556C271.217 338.481 258.368 338.481 250.444 330.556C242.519 322.632 242.519 309.783 250.444 301.858L274.595 277.707L303.293 306.405L279.142 330.556Z" fill="#D5D5D5" stroke="#D5D5D5"/>
<path d="M279.142 390.556C271.217 398.481 258.368 398.481 250.444 390.556C242.519 382.632 242.519 369.783 250.444 361.858L274.595 337.707L303.293 366.405L279.142 390.556Z" fill="#D5D5D5" stroke="#D5D5D5"/>
<rect x="305" y="516" width="238" height="88" transform="rotate(-90 305 516)" fill="white" stroke="#D5D5D5" stroke-width="2"/>
<rect x="254" width="78" height="8" fill="#F7F7F7"/>
<rect x="120" width="78" height="8" fill="#F7F7F7"/>
<rect x="294" y="592" width="96" height="8" fill="#F7F7F7"/>
<path d="M290 593.063L373.006 545L377 551.937L293.994 600L290 593.063Z" fill="#D5D5D5"/>
</svg>
