<svg width="1076" height="600" viewBox="0 0 1076 600" fill="none" xmlns="http://www.w3.org/2000/svg">
<mask id="path-1-inside-1" fill="white">
<path fill-rule="evenodd" clip-rule="evenodd" d="M1076 0H0V600H846V280H1076V0Z"/>
</mask>
<path fill-rule="evenodd" clip-rule="evenodd" d="M1076 0H0V600H846V280H1076V0Z" fill="#F7F7F7"/>
<path d="M0 0V-8H-8V0H0ZM1076 0H1084V-8H1076V0ZM0 600H-8V608H0V600ZM846 600V608H854V600H846ZM846 280V272H838V280H846ZM1076 280V288H1084V280H1076ZM0 8H1076V-8H0V8ZM8 600V0H-8V600H8ZM846 592H0V608H846V592ZM854 600V280H838V600H854ZM846 288H1076V272H846V288ZM1068 0V280H1084V0H1068Z" fill="#D5D5D5" mask="url(#path-1-inside-1)"/>
<path d="M975.556 255.556C967.632 263.481 954.783 263.481 946.858 255.556L922.707 231.405L951.405 202.707L975.556 226.858C983.481 234.783 983.481 247.632 975.556 255.556Z" fill="#D5D5D5" stroke="#D5D5D5"/>
<rect x="893" y="143" width="118" height="58" fill="white" stroke="#D5D5D5" stroke-width="2"/>
<path d="M984.81 165.64H980.858V161.752H984.746C985.674 161.752 986.122 162.52 986.122 163.752C986.122 164.904 985.786 165.64 984.81 165.64ZM984.682 160.424H980.858V157.224H984.682C985.626 157.224 985.898 157.784 985.898 158.792C985.898 159.704 985.61 160.424 984.682 160.424ZM985.338 161.048C987.338 160.872 987.61 159.912 987.61 158.504C987.61 157 987.13 155.848 984.906 155.848H979.226V167H985.05C986.842 167 987.882 166.04 987.882 163.896C987.882 162.312 987.466 161.144 985.338 161.048ZM989.571 163.256H993.219V161.832H989.571V163.256ZM1003.35 155.848H995.13V157.24H1001.18C999.738 159.4 997.834 163.592 996.586 167H998.442C999.53 163.816 1001.74 158.984 1003.35 156.376V155.848Z" fill="#272727"/>
<g clip-path="url(#clip0)">
<path d="M668.444 24.4436C676.368 16.5188 689.217 16.5188 697.142 24.4436L721.293 48.5946L692.595 77.2929L668.444 53.1419C660.519 45.2171 660.519 32.3684 668.444 24.4436Z" fill="#D5D5D5" stroke="#D5D5D5"/>
<rect x="633" y="79" width="118" height="58" fill="white" stroke="#D5D5D5" stroke-width="2"/>
<path d="M647.81 121.64H643.858V117.752H647.746C648.674 117.752 649.122 118.52 649.122 119.752C649.122 120.904 648.786 121.64 647.81 121.64ZM647.682 116.424H643.858V113.224H647.682C648.626 113.224 648.898 113.784 648.898 114.792C648.898 115.704 648.61 116.424 647.682 116.424ZM648.338 117.048C650.338 116.872 650.61 115.912 650.61 114.504C650.61 113 650.13 111.848 647.906 111.848H642.226V123H648.05C649.842 123 650.882 122.04 650.882 119.896C650.882 118.312 650.466 117.144 648.338 117.048ZM652.571 119.256H656.219V117.832H652.571V119.256ZM660.082 113.24H665.122V111.848H658.514V117.848C659.282 117.688 660.386 117.592 661.346 117.592C663.49 117.592 663.97 118.12 663.97 119.784C663.97 121.272 663.442 121.784 661.17 121.784C660.194 121.784 659.138 121.672 658.354 121.432L658.002 122.792C658.946 123.016 660.194 123.224 661.362 123.224C664.466 123.224 665.73 122.392 665.73 119.656C665.73 117.192 664.722 116.2 661.65 116.2C661.09 116.2 660.562 116.232 660.082 116.28V113.24Z" fill="#272727"/>
</g>
<g clip-path="url(#clip1)">
<path d="M928.444 24.4436C936.368 16.5188 949.217 16.5188 957.142 24.4436L981.293 48.5946L952.595 77.2929L928.444 53.1419C920.519 45.2171 920.519 32.3684 928.444 24.4436Z" fill="#D5D5D5" stroke="#D5D5D5"/>
<rect x="893" y="79" width="118" height="58" fill="white" stroke="#D5D5D5" stroke-width="2"/>
<path d="M907.81 121.64H903.858V117.752H907.746C908.674 117.752 909.122 118.52 909.122 119.752C909.122 120.904 908.786 121.64 907.81 121.64ZM907.682 116.424H903.858V113.224H907.682C908.626 113.224 908.898 113.784 908.898 114.792C908.898 115.704 908.61 116.424 907.682 116.424ZM908.338 117.048C910.338 116.872 910.61 115.912 910.61 114.504C910.61 113 910.13 111.848 907.906 111.848H902.226V123H908.05C909.842 123 910.882 122.04 910.882 119.896C910.882 118.312 910.466 117.144 908.338 117.048ZM912.571 119.256H916.219V117.832H912.571V119.256ZM925.81 112.024C924.962 111.768 923.81 111.576 922.834 111.576C919.41 111.576 917.842 112.792 917.842 117.352C917.842 121.912 918.978 123.224 922.082 123.224C925.01 123.224 926.178 122.392 926.178 119.656C926.178 117.192 925.154 116.2 922.066 116.2C921.378 116.2 920.338 116.28 919.57 116.424C919.714 113.608 920.658 113.064 922.85 113.064C923.778 113.064 924.77 113.224 925.41 113.464L925.81 112.024ZM919.554 117.816C920.29 117.672 921.25 117.592 922.114 117.592C924.002 117.592 924.466 118.2 924.466 119.784C924.466 121.24 924.034 121.784 922.082 121.784C920.402 121.784 919.602 121.144 919.554 117.816Z" fill="#272727"/>
</g>
<path d="M610.788 503.203C603.059 510.932 590.527 510.932 582.797 503.203C575.068 495.473 575.068 482.941 582.797 475.212L606.595 451.414L634.586 479.405L610.788 503.203Z" fill="#D5D5D5" stroke="#D5D5D5" stroke-width="2"/>
<path d="M571 397H689V515H643V468C643 454.193 631.807 443 618 443H571V397Z" fill="white" stroke="#D5D5D5" stroke-width="2"/>
<path d="M652.754 419.64H648.802V415.752H652.69C653.618 415.752 654.066 416.52 654.066 417.752C654.066 418.904 653.73 419.64 652.754 419.64ZM652.626 414.424H648.802V411.224H652.626C653.57 411.224 653.842 411.784 653.842 412.792C653.842 413.704 653.554 414.424 652.626 414.424ZM653.282 415.048C655.282 414.872 655.554 413.912 655.554 412.504C655.554 411 655.074 409.848 652.85 409.848H647.17V421H652.994C654.786 421 655.826 420.04 655.826 417.896C655.826 416.312 655.41 415.144 653.282 415.048ZM657.515 417.256H661.163V415.832H657.515V417.256ZM668.065 421V409.416L663.473 411.416L663.953 412.728L666.449 411.592V421H668.065ZM677.976 416.6H674.424C675.112 415.352 676.68 412.76 677.976 411.128V416.6ZM679.544 409.848H677.224C675.56 412.056 673.48 415.448 672.36 417.496V417.944H677.976V421H679.544V417.944H681.08V416.6H679.544V409.848Z" fill="#272727"/>
<path d="M801.203 503.203C793.473 510.932 780.941 510.932 773.212 503.203L749.414 479.405L777.405 451.414L801.203 475.212C808.932 482.941 808.932 495.473 801.203 503.203Z" fill="#D5D5D5" stroke="#D5D5D5" stroke-width="2"/>
<path d="M695 515V397H813V443H766C752.193 443 741 454.193 741 468V515H695Z" fill="white" stroke="#D5D5D5" stroke-width="2"/>
<path d="M709.676 419.64H705.724V415.752H709.612C710.54 415.752 710.988 416.52 710.988 417.752C710.988 418.904 710.652 419.64 709.676 419.64ZM709.548 414.424H705.724V411.224H709.548C710.492 411.224 710.764 411.784 710.764 412.792C710.764 413.704 710.476 414.424 709.548 414.424ZM710.204 415.048C712.204 414.872 712.476 413.912 712.476 412.504C712.476 411 711.996 409.848 709.772 409.848H704.092V421H709.916C711.708 421 712.748 420.04 712.748 417.896C712.748 416.312 712.332 415.144 710.204 415.048ZM714.437 417.256H718.085V415.832H714.437V417.256ZM724.987 421V409.416L720.395 411.416L720.875 412.728L723.371 411.592V421H724.987ZM732.082 411.24H737.122V409.848H730.514V415.848C731.282 415.688 732.386 415.592 733.346 415.592C735.49 415.592 735.97 416.12 735.97 417.784C735.97 419.272 735.442 419.784 733.17 419.784C732.194 419.784 731.138 419.672 730.354 419.432L730.002 420.792C730.946 421.016 732.194 421.224 733.362 421.224C736.466 421.224 737.73 420.392 737.73 417.656C737.73 415.192 736.722 414.2 733.65 414.2C733.09 414.2 732.562 414.232 732.082 414.28V411.24Z" fill="#272727"/>
<path d="M582.797 284.797C590.527 277.068 603.059 277.068 610.788 284.797L634.586 308.595L606.595 336.586L582.797 312.788C575.068 305.059 575.068 292.527 582.797 284.797Z" fill="#D5D5D5" stroke="#D5D5D5" stroke-width="2"/>
<path d="M689 273V391H571V345H618C631.807 345 643 333.807 643 320V273H689Z" fill="white" stroke="#D5D5D5" stroke-width="2"/>
<path d="M652.676 375.64H648.724V371.752H652.612C653.54 371.752 653.988 372.52 653.988 373.752C653.988 374.904 653.652 375.64 652.676 375.64ZM652.548 370.424H648.724V367.224H652.548C653.492 367.224 653.764 367.784 653.764 368.792C653.764 369.704 653.476 370.424 652.548 370.424ZM653.204 371.048C655.204 370.872 655.476 369.912 655.476 368.504C655.476 367 654.996 365.848 652.772 365.848H647.092V377H652.916C654.708 377 655.748 376.04 655.748 373.896C655.748 372.312 655.332 371.144 653.204 371.048ZM657.437 373.256H661.085V371.832H657.437V373.256ZM667.987 377V365.416L663.395 367.416L663.875 368.728L666.371 367.592V377H667.987ZM674.906 375.608C679.77 372.152 680.618 371.064 680.618 368.776C680.618 366.36 679.306 365.576 676.554 365.576C675.418 365.576 674.186 365.784 673.242 366.056C673.354 366.536 673.482 367 673.61 367.48C674.202 367.24 675.514 367.048 676.458 367.048C678.202 367.048 678.906 367.448 678.906 368.888C678.906 370.68 678.538 371.176 672.73 375.704V377H680.554V375.608H674.906Z" fill="#272727"/>
<path d="M773.212 284.797C780.941 277.068 793.473 277.068 801.203 284.797C808.932 292.527 808.932 305.059 801.203 312.788L777.405 336.586L749.414 308.595L773.212 284.797Z" fill="#D5D5D5" stroke="#D5D5D5" stroke-width="2"/>
<path d="M813 391H695V273H741V320C741 333.807 752.193 345 766 345H813V391Z" fill="white" stroke="#D5D5D5" stroke-width="2"/>
<path d="M709.676 375.64H705.724V371.752H709.612C710.54 371.752 710.988 372.52 710.988 373.752C710.988 374.904 710.652 375.64 709.676 375.64ZM709.548 370.424H705.724V367.224H709.548C710.492 367.224 710.764 367.784 710.764 368.792C710.764 369.704 710.476 370.424 709.548 370.424ZM710.204 371.048C712.204 370.872 712.476 369.912 712.476 368.504C712.476 367 711.996 365.848 709.772 365.848H704.092V377H709.916C711.708 377 712.748 376.04 712.748 373.896C712.748 372.312 712.332 371.144 710.204 371.048ZM714.437 373.256H718.085V371.832H714.437V373.256ZM724.987 377V365.416L720.395 367.416L720.875 368.728L723.371 367.592V377H724.987ZM735.122 371.048C737.106 370.872 737.49 369.768 737.49 368.36C737.49 366.456 736.466 365.576 733.346 365.576C732.066 365.576 730.786 365.8 729.858 366.008L730.21 367.4C730.946 367.16 732.194 367.016 733.154 367.016C735.25 367.016 735.794 367.464 735.794 368.632C735.794 369.928 735.122 370.408 733.474 370.408H732.066V371.768H733.49C735.218 371.768 735.954 372.344 735.954 373.8C735.954 375.256 735.41 375.784 733.09 375.784C732.114 375.784 730.914 375.672 730.098 375.432L729.762 376.792C730.738 377.016 732.146 377.224 733.298 377.224C736.37 377.224 737.714 376.408 737.714 373.96C737.714 372.36 737.234 371.144 735.122 371.048Z" fill="#272727"/>
<path d="M72.7884 555.203C65.0588 562.932 52.5267 562.932 44.7972 555.203C37.0676 547.473 37.0676 534.941 44.7972 527.212L68.5946 503.414L96.5858 531.405L72.7884 555.203Z" fill="#D5D5D5" stroke="#D5D5D5" stroke-width="2"/>
<path d="M33 449H151V567H105V520C105 506.193 93.8071 495 80 495H33V449Z" fill="white" stroke="#D5D5D5" stroke-width="2"/>
<path d="M114.676 471.64H110.724V467.752H114.612C115.54 467.752 115.988 468.52 115.988 469.752C115.988 470.904 115.652 471.64 114.676 471.64ZM114.548 466.424H110.724V463.224H114.548C115.492 463.224 115.764 463.784 115.764 464.792C115.764 465.704 115.476 466.424 114.548 466.424ZM115.204 467.048C117.204 466.872 117.476 465.912 117.476 464.504C117.476 463 116.996 461.848 114.772 461.848H109.092V473H114.916C116.708 473 117.748 472.04 117.748 469.896C117.748 468.312 117.332 467.144 115.204 467.048ZM119.437 469.256H123.085V467.832H119.437V469.256ZM129.987 473V461.416L125.395 463.416L125.875 464.728L128.371 463.592V473H129.987ZM138.858 461.576C136.138 461.576 134.778 462.76 134.778 467.272C134.778 471.848 136.138 473.224 138.858 473.224C141.594 473.224 142.922 471.848 142.922 467.272C142.922 462.76 141.578 461.576 138.858 461.576ZM138.842 471.768C137.05 471.768 136.426 470.904 136.426 467.272C136.426 463.528 137.05 462.968 138.842 462.968C140.698 462.968 141.29 463.528 141.29 467.272C141.29 470.904 140.698 471.768 138.842 471.768Z" fill="#272727"/>
<path d="M263.203 555.203C255.473 562.932 242.941 562.932 235.212 555.203L211.414 531.405L239.405 503.414L263.203 527.212C270.932 534.941 270.932 547.473 263.203 555.203Z" fill="#D5D5D5" stroke="#D5D5D5" stroke-width="2"/>
<path d="M157 567V449H275V495H228C214.193 495 203 506.193 203 520V567H157Z" fill="white" stroke="#D5D5D5" stroke-width="2"/>
<path d="M171.676 471.64H167.724V467.752H171.612C172.54 467.752 172.988 468.52 172.988 469.752C172.988 470.904 172.652 471.64 171.676 471.64ZM171.548 466.424H167.724V463.224H171.548C172.492 463.224 172.764 463.784 172.764 464.792C172.764 465.704 172.476 466.424 171.548 466.424ZM172.204 467.048C174.204 466.872 174.476 465.912 174.476 464.504C174.476 463 173.996 461.848 171.772 461.848H166.092V473H171.916C173.708 473 174.748 472.04 174.748 469.896C174.748 468.312 174.332 467.144 172.204 467.048ZM176.437 469.256H180.085V467.832H176.437V469.256ZM186.987 473V461.416L182.395 463.416L182.875 464.728L185.371 463.592V473H186.987ZM197.122 473V461.416L192.53 463.416L193.01 464.728L195.506 463.592V473H197.122Z" fill="#272727"/>
<path d="M44.7972 336.797C52.5267 329.068 65.0588 329.068 72.7884 336.797L96.5858 360.595L68.5946 388.586L44.7972 364.788C37.0676 357.059 37.0676 344.527 44.7972 336.797Z" fill="#D5D5D5" stroke="#D5D5D5" stroke-width="2"/>
<path d="M151 325V443H33V397H80C93.8071 397 105 385.807 105 372V325H151Z" fill="white" stroke="#D5D5D5" stroke-width="2"/>
<path d="M124.81 427.64H120.858V423.752H124.746C125.674 423.752 126.122 424.52 126.122 425.752C126.122 426.904 125.786 427.64 124.81 427.64ZM124.682 422.424H120.858V419.224H124.682C125.626 419.224 125.898 419.784 125.898 420.792C125.898 421.704 125.61 422.424 124.682 422.424ZM125.338 423.048C127.338 422.872 127.61 421.912 127.61 420.504C127.61 419 127.13 417.848 124.906 417.848H119.226V429H125.05C126.842 429 127.882 428.04 127.882 425.896C127.882 424.312 127.466 423.144 125.338 423.048ZM129.571 425.256H133.219V423.832H129.571V425.256ZM138.858 427.88C137.034 427.88 136.49 427.32 136.49 425.848C136.49 424.312 137.146 423.736 138.858 423.736C140.57 423.736 141.226 424.312 141.226 425.848C141.226 427.32 140.682 427.88 138.858 427.88ZM138.858 422.44C137.354 422.44 136.714 421.912 136.714 420.6C136.714 419.384 137.258 418.936 138.858 418.936C140.458 418.936 141.002 419.384 141.002 420.6C141.002 421.912 140.378 422.44 138.858 422.44ZM138.858 429.224C141.69 429.224 142.938 428.392 142.938 425.96C142.938 424.36 142.458 423.144 140.346 423.048C142.346 422.872 142.682 421.752 142.682 420.36C142.682 418.488 141.722 417.576 138.858 417.576C135.994 417.576 135.05 418.488 135.05 420.36C135.05 421.752 135.386 422.872 137.386 423.048C135.258 423.144 134.778 424.36 134.778 425.96C134.778 428.392 136.042 429.224 138.858 429.224Z" fill="#272727"/>
<path d="M235.212 336.797C242.941 329.068 255.473 329.068 263.203 336.797C270.932 344.527 270.932 357.059 263.203 364.788L239.405 388.586L211.414 360.595L235.212 336.797Z" fill="#D5D5D5" stroke="#D5D5D5" stroke-width="2"/>
<path d="M275 443H157V325H203V372C203 385.807 214.193 397 228 397H275V443Z" fill="white" stroke="#D5D5D5" stroke-width="2"/>
<path d="M171.81 427.64H167.858V423.752H171.746C172.674 423.752 173.122 424.52 173.122 425.752C173.122 426.904 172.786 427.64 171.81 427.64ZM171.682 422.424H167.858V419.224H171.682C172.626 419.224 172.898 419.784 172.898 420.792C172.898 421.704 172.61 422.424 171.682 422.424ZM172.338 423.048C174.338 422.872 174.61 421.912 174.61 420.504C174.61 419 174.13 417.848 171.906 417.848H166.226V429H172.05C173.842 429 174.882 428.04 174.882 425.896C174.882 424.312 174.466 423.144 172.338 423.048ZM176.571 425.256H180.219V423.832H176.571V425.256ZM183.746 429H185.858C187.938 427.096 190.002 424.712 190.002 421.448C190.002 418.376 189.042 417.576 185.842 417.576C182.914 417.576 181.746 418.568 181.746 421.304C181.746 423.768 182.77 424.6 185.858 424.6C186.274 424.6 187.042 424.552 187.618 424.472C186.834 426.072 185.346 427.576 183.746 429ZM185.97 423.208C183.922 423.208 183.458 422.84 183.458 421.192C183.458 419.72 183.874 419 185.842 419C187.618 419 188.29 419.256 188.29 421.656C188.29 422.152 188.242 422.616 188.114 423.048C187.458 423.16 186.674 423.208 185.97 423.208Z" fill="#272727"/>
<path d="M72.7884 263.203C65.0588 270.932 52.5267 270.932 44.7972 263.203C37.0676 255.473 37.0676 242.941 44.7972 235.212L68.5946 211.414L96.5858 239.405L72.7884 263.203Z" fill="#D5D5D5" stroke="#D5D5D5" stroke-width="2"/>
<path d="M33 157H151V275H105V228C105 214.193 93.8071 203 80 203H33V157Z" fill="white" stroke="#D5D5D5" stroke-width="2"/>
<path d="M124.81 179.64H120.858V175.752H124.746C125.674 175.752 126.122 176.52 126.122 177.752C126.122 178.904 125.786 179.64 124.81 179.64ZM124.682 174.424H120.858V171.224H124.682C125.626 171.224 125.898 171.784 125.898 172.792C125.898 173.704 125.61 174.424 124.682 174.424ZM125.338 175.048C127.338 174.872 127.61 173.912 127.61 172.504C127.61 171 127.13 169.848 124.906 169.848H119.226V181H125.05C126.842 181 127.882 180.04 127.882 177.896C127.882 176.312 127.466 175.144 125.338 175.048ZM129.571 177.256H133.219V175.832H129.571V177.256ZM140.122 175.048C142.106 174.872 142.49 173.768 142.49 172.36C142.49 170.456 141.466 169.576 138.346 169.576C137.066 169.576 135.786 169.8 134.858 170.008L135.21 171.4C135.946 171.16 137.194 171.016 138.154 171.016C140.25 171.016 140.794 171.464 140.794 172.632C140.794 173.928 140.122 174.408 138.474 174.408H137.066V175.768H138.49C140.218 175.768 140.954 176.344 140.954 177.8C140.954 179.256 140.41 179.784 138.09 179.784C137.114 179.784 135.914 179.672 135.098 179.432L134.762 180.792C135.738 181.016 137.146 181.224 138.298 181.224C141.37 181.224 142.714 180.408 142.714 177.96C142.714 176.36 142.234 175.144 140.122 175.048Z" fill="#272727"/>
<path d="M263.203 263.203C255.473 270.932 242.941 270.932 235.212 263.203L211.414 239.405L239.405 211.414L263.203 235.212C270.932 242.941 270.932 255.473 263.203 263.203Z" fill="#D5D5D5" stroke="#D5D5D5" stroke-width="2"/>
<path d="M157 275V157H275V203H228C214.193 203 203 214.193 203 228V275H157Z" fill="white" stroke="#D5D5D5" stroke-width="2"/>
<path d="M171.888 179.64H167.936V175.752H171.824C172.752 175.752 173.2 176.52 173.2 177.752C173.2 178.904 172.864 179.64 171.888 179.64ZM171.76 174.424H167.936V171.224H171.76C172.704 171.224 172.976 171.784 172.976 172.792C172.976 173.704 172.688 174.424 171.76 174.424ZM172.416 175.048C174.416 174.872 174.688 173.912 174.688 172.504C174.688 171 174.208 169.848 171.984 169.848H166.304V181H172.128C173.92 181 174.96 180.04 174.96 177.896C174.96 176.312 174.544 175.144 172.416 175.048ZM176.649 177.256H180.297V175.832H176.649V177.256ZM186.976 176.6H183.424C184.112 175.352 185.68 172.76 186.976 171.128V176.6ZM188.544 169.848H186.224C184.56 172.056 182.48 175.448 181.36 177.496V177.944H186.976V181H188.544V177.944H190.08V176.6H188.544V169.848Z" fill="#272727"/>
<path d="M44.7972 44.7972C52.5267 37.0676 65.0588 37.0676 72.7884 44.7972L96.5858 68.5946L68.5946 96.5858L44.7972 72.7884C37.0676 65.0588 37.0676 52.5267 44.7972 44.7972Z" fill="#D5D5D5" stroke="#D5D5D5" stroke-width="2"/>
<path d="M151 33V151H33V105H80C93.8071 105 105 93.8071 105 80V33H151Z" fill="white" stroke="#D5D5D5" stroke-width="2"/>
<path d="M124.81 135.64H120.858V131.752H124.746C125.674 131.752 126.122 132.52 126.122 133.752C126.122 134.904 125.786 135.64 124.81 135.64ZM124.682 130.424H120.858V127.224H124.682C125.626 127.224 125.898 127.784 125.898 128.792C125.898 129.704 125.61 130.424 124.682 130.424ZM125.338 131.048C127.338 130.872 127.61 129.912 127.61 128.504C127.61 127 127.13 125.848 124.906 125.848H119.226V137H125.05C126.842 137 127.882 136.04 127.882 133.896C127.882 132.312 127.466 131.144 125.338 131.048ZM129.571 133.256H133.219V131.832H129.571V133.256ZM140.122 137V125.416L135.53 127.416L136.01 128.728L138.506 127.592V137H140.122Z" fill="#272727"/>
<path d="M235.212 44.7972C242.941 37.0676 255.473 37.0676 263.203 44.7972C270.932 52.5267 270.932 65.0588 263.203 72.7884L239.405 96.5858L211.414 68.5946L235.212 44.7972Z" fill="#D5D5D5" stroke="#D5D5D5" stroke-width="2"/>
<path d="M275 151H157V33H203V80C203 93.8071 214.193 105 228 105H275V151Z" fill="white" stroke="#D5D5D5" stroke-width="2"/>
<path d="M171.81 135.64H167.858V131.752H171.746C172.674 131.752 173.122 132.52 173.122 133.752C173.122 134.904 172.786 135.64 171.81 135.64ZM171.682 130.424H167.858V127.224H171.682C172.626 127.224 172.898 127.784 172.898 128.792C172.898 129.704 172.61 130.424 171.682 130.424ZM172.338 131.048C174.338 130.872 174.61 129.912 174.61 128.504C174.61 127 174.13 125.848 171.906 125.848H166.226V137H172.05C173.842 137 174.882 136.04 174.882 133.896C174.882 132.312 174.466 131.144 172.338 131.048ZM176.571 133.256H180.219V131.832H176.571V133.256ZM183.906 135.608C188.77 132.152 189.618 131.064 189.618 128.776C189.618 126.36 188.306 125.576 185.554 125.576C184.418 125.576 183.186 125.784 182.242 126.056C182.354 126.536 182.482 127 182.61 127.48C183.202 127.24 184.514 127.048 185.458 127.048C187.202 127.048 187.906 127.448 187.906 128.888C187.906 130.68 187.538 131.176 181.73 135.704V137H189.554V135.608H183.906Z" fill="#272727"/>
<rect x="950" width="78" height="8" fill="#F7F7F7"/>
<rect x="816" width="78" height="8" fill="#F7F7F7"/>
<rect x="682" width="78" height="8" fill="#F7F7F7"/>
<rect x="548" width="78" height="8" fill="#F7F7F7"/>
<rect x="414" width="78" height="8" fill="#F7F7F7"/>
<rect x="182" width="78" height="8" fill="#F7F7F7"/>
<rect x="48" width="78" height="8" fill="#F7F7F7"/>
<rect x="377" y="592" width="96" height="8" fill="#F7F7F7"/>
<path d="M373 593.063L456.006 545L460 551.937L376.994 600L373 593.063Z" fill="#D5D5D5"/>
<defs>
<clipPath id="clip0">
<rect width="120" height="120" fill="white" transform="translate(632 18)"/>
</clipPath>
<clipPath id="clip1">
<rect width="120" height="120" fill="white" transform="translate(892 18)"/>
</clipPath>
</defs>
</svg>
