<svg width="1000" height="692" viewBox="0 0 1000 692" fill="none" xmlns="http://www.w3.org/2000/svg">
<mask id="path-1-inside-1" fill="white">
<path fill-rule="evenodd" clip-rule="evenodd" d="M900 0H0V692H1000V360H900V0ZM627 312H675V360H627V312ZM407 312H359V360H407V312Z"/>
</mask>
<path fill-rule="evenodd" clip-rule="evenodd" d="M900 0H0V692H1000V360H900V0ZM627 312H675V360H627V312ZM407 312H359V360H407V312Z" fill="#F7F7F7"/>
<path d="M0 0V-8H-8V0H0ZM900 0H908V-8H900V0ZM0 692H-8V700H0V692ZM1000 692V700H1008V692H1000ZM1000 360H1008V352H1000V360ZM900 360H892V368H900V360ZM675 312H683V304H675V312ZM627 312V304H619V312H627ZM675 360V368H683V360H675ZM627 360H619V368H627V360ZM359 312V304H351V312H359ZM407 312H415V304H407V312ZM359 360H351V368H359V360ZM407 360V368H415V360H407ZM0 8H900V-8H0V8ZM8 692V0H-8V692H8ZM1000 684H0V700H1000V684ZM992 360V692H1008V360H992ZM900 368H1000V352H900V368ZM892 0V360H908V0H892ZM675 304H627V320H675V304ZM683 360V312H667V360H683ZM627 368H675V352H627V368ZM619 312V360H635V312H619ZM359 320H407V304H359V320ZM367 360V312H351V360H367ZM407 352H359V368H407V352ZM399 312V360H415V312H399Z" fill="#D5D5D5" mask="url(#path-1-inside-1)"/>
<path d="M435.788 639.203C428.059 646.932 415.527 646.932 407.797 639.203C400.068 631.473 400.068 618.941 407.797 611.212L431.595 587.414L459.586 615.405L435.788 639.203Z" fill="#D5D5D5" stroke="#D5D5D5" stroke-width="2"/>
<path d="M396 533H514V651H468V604C468 590.193 456.807 579 443 579H396V533Z" fill="white" stroke="#D5D5D5" stroke-width="2"/>
<path d="M473.172 551.32C473.172 555.864 474.836 557.224 478.34 557.224C479.348 557.224 480.628 557.064 481.492 556.808L481.092 555.352C480.452 555.576 479.348 555.72 478.532 555.72C475.908 555.72 474.932 555.08 474.932 551.336C474.932 547.576 475.908 547.064 478.532 547.064C479.348 547.064 480.452 547.208 481.092 547.448L481.492 545.992C480.644 545.752 479.348 545.576 478.34 545.576C474.836 545.576 473.172 546.76 473.172 551.32ZM482.437 553.256H486.085V551.832H482.437V553.256ZM489.771 555.608C494.635 552.152 495.483 551.064 495.483 548.776C495.483 546.36 494.171 545.576 491.419 545.576C490.283 545.576 489.051 545.784 488.107 546.056C488.219 546.536 488.347 547 488.475 547.48C489.067 547.24 490.379 547.048 491.323 547.048C493.067 547.048 493.771 547.448 493.771 548.888C493.771 550.68 493.403 551.176 487.595 555.704V557H495.419V555.608H489.771ZM501.858 545.576C499.138 545.576 497.778 546.76 497.778 551.272C497.778 555.848 499.138 557.224 501.858 557.224C504.594 557.224 505.922 555.848 505.922 551.272C505.922 546.76 504.578 545.576 501.858 545.576ZM501.842 555.768C500.05 555.768 499.426 554.904 499.426 551.272C499.426 547.528 500.05 546.968 501.842 546.968C503.698 546.968 504.29 547.528 504.29 551.272C504.29 554.904 503.698 555.768 501.842 555.768Z" fill="#272727"/>
<path d="M626.203 639.203C618.473 646.932 605.941 646.932 598.212 639.203L574.414 615.405L602.405 587.414L626.203 611.212C633.932 618.941 633.932 631.473 626.203 639.203Z" fill="#D5D5D5" stroke="#D5D5D5" stroke-width="2"/>
<path d="M520 651V533H638V579H591C577.193 579 566 590.193 566 604V651H520Z" fill="white" stroke="#D5D5D5" stroke-width="2"/>
<path d="M528.172 551.32C528.172 555.864 529.836 557.224 533.34 557.224C534.348 557.224 535.628 557.064 536.492 556.808L536.092 555.352C535.452 555.576 534.348 555.72 533.532 555.72C530.908 555.72 529.932 555.08 529.932 551.336C529.932 547.576 530.908 547.064 533.532 547.064C534.348 547.064 535.452 547.208 536.092 547.448L536.492 545.992C535.644 545.752 534.348 545.576 533.34 545.576C529.836 545.576 528.172 546.76 528.172 551.32ZM537.437 553.256H541.085V551.832H537.437V553.256ZM544.771 555.608C549.635 552.152 550.483 551.064 550.483 548.776C550.483 546.36 549.171 545.576 546.419 545.576C545.283 545.576 544.051 545.784 543.107 546.056C543.219 546.536 543.347 547 543.475 547.48C544.067 547.24 545.379 547.048 546.323 547.048C548.067 547.048 548.771 547.448 548.771 548.888C548.771 550.68 548.403 551.176 542.595 555.704V557H550.419V555.608H544.771ZM558.122 557V545.416L553.53 547.416L554.01 548.728L556.506 547.592V557H558.122Z" fill="#272727"/>
<path d="M407.797 420.797C415.527 413.068 428.059 413.068 435.788 420.797L459.586 444.595L431.595 472.586L407.797 448.788C400.068 441.059 400.068 428.527 407.797 420.797Z" fill="#D5D5D5" stroke="#D5D5D5" stroke-width="2"/>
<path d="M514 409V527H396V481H443C456.807 481 468 469.807 468 456V409H514Z" fill="white" stroke="#D5D5D5" stroke-width="2"/>
<path d="M473.172 507.32C473.172 511.864 474.836 513.224 478.34 513.224C479.348 513.224 480.628 513.064 481.492 512.808L481.092 511.352C480.452 511.576 479.348 511.72 478.532 511.72C475.908 511.72 474.932 511.08 474.932 507.336C474.932 503.576 475.908 503.064 478.532 503.064C479.348 503.064 480.452 503.208 481.092 503.448L481.492 501.992C480.644 501.752 479.348 501.576 478.34 501.576C474.836 501.576 473.172 502.76 473.172 507.32ZM482.437 509.256H486.085V507.832H482.437V509.256ZM492.987 513V501.416L488.395 503.416L488.875 504.728L491.371 503.592V513H492.987ZM501.858 511.88C500.034 511.88 499.49 511.32 499.49 509.848C499.49 508.312 500.146 507.736 501.858 507.736C503.57 507.736 504.226 508.312 504.226 509.848C504.226 511.32 503.682 511.88 501.858 511.88ZM501.858 506.44C500.354 506.44 499.714 505.912 499.714 504.6C499.714 503.384 500.258 502.936 501.858 502.936C503.458 502.936 504.002 503.384 504.002 504.6C504.002 505.912 503.378 506.44 501.858 506.44ZM501.858 513.224C504.69 513.224 505.938 512.392 505.938 509.96C505.938 508.36 505.458 507.144 503.346 507.048C505.346 506.872 505.682 505.752 505.682 504.36C505.682 502.488 504.722 501.576 501.858 501.576C498.994 501.576 498.05 502.488 498.05 504.36C498.05 505.752 498.386 506.872 500.386 507.048C498.258 507.144 497.778 508.36 497.778 509.96C497.778 512.392 499.042 513.224 501.858 513.224Z" fill="#272727"/>
<path d="M598.212 420.797C605.941 413.068 618.473 413.068 626.203 420.797C633.932 428.527 633.932 441.059 626.203 448.788L602.405 472.586L574.414 444.595L598.212 420.797Z" fill="#D5D5D5" stroke="#D5D5D5" stroke-width="2"/>
<path d="M638 527H520V409H566V456C566 469.807 577.193 481 591 481H638V527Z" fill="white" stroke="#D5D5D5" stroke-width="2"/>
<path d="M528.172 507.32C528.172 511.864 529.836 513.224 533.34 513.224C534.348 513.224 535.628 513.064 536.492 512.808L536.092 511.352C535.452 511.576 534.348 511.72 533.532 511.72C530.908 511.72 529.932 511.08 529.932 507.336C529.932 503.576 530.908 503.064 533.532 503.064C534.348 503.064 535.452 503.208 536.092 503.448L536.492 501.992C535.644 501.752 534.348 501.576 533.34 501.576C529.836 501.576 528.172 502.76 528.172 507.32ZM537.437 509.256H541.085V507.832H537.437V509.256ZM547.987 513V501.416L543.395 503.416L543.875 504.728L546.371 503.592V513H547.987ZM554.746 513H556.858C558.938 511.096 561.002 508.712 561.002 505.448C561.002 502.376 560.042 501.576 556.842 501.576C553.914 501.576 552.746 502.568 552.746 505.304C552.746 507.768 553.77 508.6 556.858 508.6C557.274 508.6 558.042 508.552 558.618 508.472C557.834 510.072 556.346 511.576 554.746 513ZM556.97 507.208C554.922 507.208 554.458 506.84 554.458 505.192C554.458 503.72 554.874 503 556.842 503C558.618 503 559.29 503.256 559.29 505.656C559.29 506.152 559.242 506.616 559.114 507.048C558.458 507.16 557.674 507.208 556.97 507.208Z" fill="#272727"/>
<path d="M660.788 263.203C653.059 270.932 640.527 270.932 632.797 263.203C625.068 255.473 625.068 242.941 632.797 235.212L656.595 211.414L684.586 239.405L660.788 263.203Z" fill="#D5D5D5" stroke="#D5D5D5" stroke-width="2"/>
<path d="M621 157H739V275H693V228C693 214.193 681.807 203 668 203H621V157Z" fill="white" stroke="#D5D5D5" stroke-width="2"/>
<path d="M698.172 175.32C698.172 179.864 699.836 181.224 703.34 181.224C704.348 181.224 705.628 181.064 706.492 180.808L706.092 179.352C705.452 179.576 704.348 179.72 703.532 179.72C700.908 179.72 699.932 179.08 699.932 175.336C699.932 171.576 700.908 171.064 703.532 171.064C704.348 171.064 705.452 171.208 706.092 171.448L706.492 169.992C705.644 169.752 704.348 169.576 703.34 169.576C699.836 169.576 698.172 170.76 698.172 175.32ZM707.437 177.256H711.085V175.832H707.437V177.256ZM717.987 181V169.416L713.395 171.416L713.875 172.728L716.371 171.592V181H717.987ZM728.122 181V169.416L723.53 171.416L724.01 172.728L726.506 171.592V181H728.122Z" fill="#272727"/>
<path d="M851.203 263.203C843.473 270.932 830.941 270.932 823.212 263.203L799.414 239.405L827.405 211.414L851.203 235.212C858.932 242.941 858.932 255.473 851.203 263.203Z" fill="#D5D5D5" stroke="#D5D5D5" stroke-width="2"/>
<path d="M745 275V157H863V203H816C802.193 203 791 214.193 791 228V275H745Z" fill="white" stroke="#D5D5D5" stroke-width="2"/>
<path d="M753.172 175.32C753.172 179.864 754.836 181.224 758.34 181.224C759.348 181.224 760.628 181.064 761.492 180.808L761.092 179.352C760.452 179.576 759.348 179.72 758.532 179.72C755.908 179.72 754.932 179.08 754.932 175.336C754.932 171.576 755.908 171.064 758.532 171.064C759.348 171.064 760.452 171.208 761.092 171.448L761.492 169.992C760.644 169.752 759.348 169.576 758.34 169.576C754.836 169.576 753.172 170.76 753.172 175.32ZM762.437 177.256H766.085V175.832H762.437V177.256ZM772.987 181V169.416L768.395 171.416L768.875 172.728L771.371 171.592V181H772.987ZM779.906 179.608C784.77 176.152 785.618 175.064 785.618 172.776C785.618 170.36 784.306 169.576 781.554 169.576C780.418 169.576 779.186 169.784 778.242 170.056C778.354 170.536 778.482 171 778.61 171.48C779.202 171.24 780.514 171.048 781.458 171.048C783.202 171.048 783.906 171.448 783.906 172.888C783.906 174.68 783.538 175.176 777.73 179.704V181H785.554V179.608H779.906Z" fill="#272727"/>
<path d="M632.797 44.7972C640.527 37.0676 653.059 37.0676 660.788 44.7972L684.586 68.5946L656.595 96.5858L632.797 72.7884C625.068 65.0588 625.068 52.5267 632.797 44.7972Z" fill="#D5D5D5" stroke="#D5D5D5" stroke-width="2"/>
<path d="M739 33V151H621V105H668C681.807 105 693 93.8071 693 80V33H739Z" fill="white" stroke="#D5D5D5" stroke-width="2"/>
<path d="M708.306 131.32C708.306 135.864 709.97 137.224 713.474 137.224C714.482 137.224 715.762 137.064 716.626 136.808L716.226 135.352C715.586 135.576 714.482 135.72 713.666 135.72C711.042 135.72 710.066 135.08 710.066 131.336C710.066 127.576 711.042 127.064 713.666 127.064C714.482 127.064 715.586 127.208 716.226 127.448L716.626 125.992C715.778 125.752 714.482 125.576 713.474 125.576C709.97 125.576 708.306 126.76 708.306 131.32ZM717.571 133.256H721.219V131.832H717.571V133.256ZM724.746 137H726.858C728.938 135.096 731.002 132.712 731.002 129.448C731.002 126.376 730.042 125.576 726.842 125.576C723.914 125.576 722.746 126.568 722.746 129.304C722.746 131.768 723.77 132.6 726.858 132.6C727.274 132.6 728.042 132.552 728.618 132.472C727.834 134.072 726.346 135.576 724.746 137ZM726.97 131.208C724.922 131.208 724.458 130.84 724.458 129.192C724.458 127.72 724.874 127 726.842 127C728.618 127 729.29 127.256 729.29 129.656C729.29 130.152 729.242 130.616 729.114 131.048C728.458 131.16 727.674 131.208 726.97 131.208Z" fill="#272727"/>
<path d="M823.212 44.7972C830.941 37.0676 843.473 37.0676 851.203 44.7972C858.932 52.5267 858.932 65.0588 851.203 72.7884L827.405 96.5858L799.414 68.5946L823.212 44.7972Z" fill="#D5D5D5" stroke="#D5D5D5" stroke-width="2"/>
<path d="M863 151H745V33H791V80C791 93.8071 802.193 105 816 105H863V151Z" fill="white" stroke="#D5D5D5" stroke-width="2"/>
<path d="M753.172 131.32C753.172 135.864 754.836 137.224 758.34 137.224C759.348 137.224 760.628 137.064 761.492 136.808L761.092 135.352C760.452 135.576 759.348 135.72 758.532 135.72C755.908 135.72 754.932 135.08 754.932 131.336C754.932 127.576 755.908 127.064 758.532 127.064C759.348 127.064 760.452 127.208 761.092 127.448L761.492 125.992C760.644 125.752 759.348 125.576 758.34 125.576C754.836 125.576 753.172 126.76 753.172 131.32ZM762.437 133.256H766.085V131.832H762.437V133.256ZM772.987 137V125.416L768.395 127.416L768.875 128.728L771.371 127.592V137H772.987ZM781.858 125.576C779.138 125.576 777.778 126.76 777.778 131.272C777.778 135.848 779.138 137.224 781.858 137.224C784.594 137.224 785.922 135.848 785.922 131.272C785.922 126.76 784.578 125.576 781.858 125.576ZM781.842 135.768C780.05 135.768 779.426 134.904 779.426 131.272C779.426 127.528 780.05 126.968 781.842 126.968C783.698 126.968 784.29 127.528 784.29 131.272C784.29 134.904 783.698 135.768 781.842 135.768Z" fill="#272727"/>
<path d="M368.788 263.203C361.059 270.932 348.527 270.932 340.797 263.203C333.068 255.473 333.068 242.941 340.797 235.212L364.595 211.414L392.586 239.405L368.788 263.203Z" fill="#D5D5D5" stroke="#D5D5D5" stroke-width="2"/>
<path d="M329 157H447V275H401V228C401 214.193 389.807 203 376 203H329V157Z" fill="white" stroke="#D5D5D5" stroke-width="2"/>
<path d="M416.306 175.32C416.306 179.864 417.97 181.224 421.474 181.224C422.482 181.224 423.762 181.064 424.626 180.808L424.226 179.352C423.586 179.576 422.482 179.72 421.666 179.72C419.042 179.72 418.066 179.08 418.066 175.336C418.066 171.576 419.042 171.064 421.666 171.064C422.482 171.064 423.586 171.208 424.226 171.448L424.626 169.992C423.778 169.752 422.482 169.576 421.474 169.576C417.97 169.576 416.306 170.76 416.306 175.32ZM425.571 177.256H429.219V175.832H425.571V177.256ZM439.354 169.848H431.13V171.24H437.178C435.738 173.4 433.834 177.592 432.586 181H434.442C435.53 177.816 437.738 172.984 439.354 170.376V169.848Z" fill="#272727"/>
<path d="M559.203 263.203C551.473 270.932 538.941 270.932 531.212 263.203L507.414 239.405L535.405 211.414L559.203 235.212C566.932 242.941 566.932 255.473 559.203 263.203Z" fill="#D5D5D5" stroke="#D5D5D5" stroke-width="2"/>
<path d="M453 275V157H571V203H524C510.193 203 499 214.193 499 228V275H453Z" fill="white" stroke="#D5D5D5" stroke-width="2"/>
<path d="M461.306 175.32C461.306 179.864 462.97 181.224 466.474 181.224C467.482 181.224 468.762 181.064 469.626 180.808L469.226 179.352C468.586 179.576 467.482 179.72 466.666 179.72C464.042 179.72 463.066 179.08 463.066 175.336C463.066 171.576 464.042 171.064 466.666 171.064C467.482 171.064 468.586 171.208 469.226 171.448L469.626 169.992C468.778 169.752 467.482 169.576 466.474 169.576C462.97 169.576 461.306 170.76 461.306 175.32ZM470.571 177.256H474.219V175.832H470.571V177.256ZM479.858 179.88C478.034 179.88 477.49 179.32 477.49 177.848C477.49 176.312 478.146 175.736 479.858 175.736C481.57 175.736 482.226 176.312 482.226 177.848C482.226 179.32 481.682 179.88 479.858 179.88ZM479.858 174.44C478.354 174.44 477.714 173.912 477.714 172.6C477.714 171.384 478.258 170.936 479.858 170.936C481.458 170.936 482.002 171.384 482.002 172.6C482.002 173.912 481.378 174.44 479.858 174.44ZM479.858 181.224C482.69 181.224 483.938 180.392 483.938 177.96C483.938 176.36 483.458 175.144 481.346 175.048C483.346 174.872 483.682 173.752 483.682 172.36C483.682 170.488 482.722 169.576 479.858 169.576C476.994 169.576 476.05 170.488 476.05 172.36C476.05 173.752 476.386 174.872 478.386 175.048C476.258 175.144 475.778 176.36 475.778 177.96C475.778 180.392 477.042 181.224 479.858 181.224Z" fill="#272727"/>
<path d="M340.797 44.7972C348.527 37.0676 361.059 37.0676 368.788 44.7972L392.586 68.5946L364.595 96.5858L340.797 72.7884C333.068 65.0588 333.068 52.5267 340.797 44.7972Z" fill="#D5D5D5" stroke="#D5D5D5" stroke-width="2"/>
<path d="M447 33V151H329V105H376C389.807 105 401 93.8071 401 80V33H447Z" fill="white" stroke="#D5D5D5" stroke-width="2"/>
<path d="M416.306 131.32C416.306 135.864 417.97 137.224 421.474 137.224C422.482 137.224 423.762 137.064 424.626 136.808L424.226 135.352C423.586 135.576 422.482 135.72 421.666 135.72C419.042 135.72 418.066 135.08 418.066 131.336C418.066 127.576 419.042 127.064 421.666 127.064C422.482 127.064 423.586 127.208 424.226 127.448L424.626 125.992C423.778 125.752 422.482 125.576 421.474 125.576C417.97 125.576 416.306 126.76 416.306 131.32ZM425.571 133.256H429.219V131.832H425.571V133.256ZM433.082 127.24H438.122V125.848H431.514V131.848C432.282 131.688 433.386 131.592 434.346 131.592C436.49 131.592 436.97 132.12 436.97 133.784C436.97 135.272 436.442 135.784 434.17 135.784C433.194 135.784 432.138 135.672 431.354 135.432L431.002 136.792C431.946 137.016 433.194 137.224 434.362 137.224C437.466 137.224 438.73 136.392 438.73 133.656C438.73 131.192 437.722 130.2 434.65 130.2C434.09 130.2 433.562 130.232 433.082 130.28V127.24Z" fill="#272727"/>
<path d="M531.212 44.7972C538.941 37.0676 551.473 37.0676 559.203 44.7972C566.932 52.5267 566.932 65.0588 559.203 72.7884L535.405 96.5858L507.414 68.5946L531.212 44.7972Z" fill="#D5D5D5" stroke="#D5D5D5" stroke-width="2"/>
<path d="M571 151H453V33H499V80C499 93.8071 510.193 105 524 105H571V151Z" fill="white" stroke="#D5D5D5" stroke-width="2"/>
<path d="M461.306 131.32C461.306 135.864 462.97 137.224 466.474 137.224C467.482 137.224 468.762 137.064 469.626 136.808L469.226 135.352C468.586 135.576 467.482 135.72 466.666 135.72C464.042 135.72 463.066 135.08 463.066 131.336C463.066 127.576 464.042 127.064 466.666 127.064C467.482 127.064 468.586 127.208 469.226 127.448L469.626 125.992C468.778 125.752 467.482 125.576 466.474 125.576C462.97 125.576 461.306 126.76 461.306 131.32ZM470.571 133.256H474.219V131.832H470.571V133.256ZM483.81 126.024C482.962 125.768 481.81 125.576 480.834 125.576C477.41 125.576 475.842 126.792 475.842 131.352C475.842 135.912 476.978 137.224 480.082 137.224C483.01 137.224 484.178 136.392 484.178 133.656C484.178 131.192 483.154 130.2 480.066 130.2C479.378 130.2 478.338 130.28 477.57 130.424C477.714 127.608 478.658 127.064 480.85 127.064C481.778 127.064 482.77 127.224 483.41 127.464L483.81 126.024ZM477.554 131.816C478.29 131.672 479.25 131.592 480.114 131.592C482.002 131.592 482.466 132.2 482.466 133.784C482.466 135.24 482.034 135.784 480.082 135.784C478.402 135.784 477.602 135.144 477.554 131.816Z" fill="#272727"/>
<path d="M76.7884 523.203C69.0588 530.932 56.5267 530.932 48.7972 523.203C41.0676 515.473 41.0676 502.941 48.7972 495.212L72.5946 471.414L100.586 499.405L76.7884 523.203Z" fill="#D5D5D5" stroke="#D5D5D5" stroke-width="2"/>
<path d="M37 417H155V535H109V488C109 474.193 97.8071 463 84 463H37V417Z" fill="white" stroke="#D5D5D5" stroke-width="2"/>
<path d="M114.172 435.32C114.172 439.864 115.836 441.224 119.34 441.224C120.348 441.224 121.628 441.064 122.492 440.808L122.092 439.352C121.452 439.576 120.348 439.72 119.532 439.72C116.908 439.72 115.932 439.08 115.932 435.336C115.932 431.576 116.908 431.064 119.532 431.064C120.348 431.064 121.452 431.208 122.092 431.448L122.492 429.992C121.644 429.752 120.348 429.576 119.34 429.576C115.836 429.576 114.172 430.76 114.172 435.32ZM123.437 437.256H127.085V435.832H123.437V437.256ZM133.987 441V429.416L129.395 431.416L129.875 432.728L132.371 431.592V441H133.987ZM141.082 431.24H146.122V429.848H139.514V435.848C140.282 435.688 141.386 435.592 142.346 435.592C144.49 435.592 144.97 436.12 144.97 437.784C144.97 439.272 144.442 439.784 142.17 439.784C141.194 439.784 140.138 439.672 139.354 439.432L139.002 440.792C139.946 441.016 141.194 441.224 142.362 441.224C145.466 441.224 146.73 440.392 146.73 437.656C146.73 435.192 145.722 434.2 142.65 434.2C142.09 434.2 141.562 434.232 141.082 434.28V431.24Z" fill="#272727"/>
<path d="M267.203 523.203C259.473 530.932 246.941 530.932 239.212 523.203L215.414 499.405L243.405 471.414L267.203 495.212C274.932 502.941 274.932 515.473 267.203 523.203Z" fill="#D5D5D5" stroke="#D5D5D5" stroke-width="2"/>
<path d="M161 535V417H279V463H232C218.193 463 207 474.193 207 488V535H161Z" fill="white" stroke="#D5D5D5" stroke-width="2"/>
<path d="M169.172 435.32C169.172 439.864 170.836 441.224 174.34 441.224C175.348 441.224 176.628 441.064 177.492 440.808L177.092 439.352C176.452 439.576 175.348 439.72 174.532 439.72C171.908 439.72 170.932 439.08 170.932 435.336C170.932 431.576 171.908 431.064 174.532 431.064C175.348 431.064 176.452 431.208 177.092 431.448L177.492 429.992C176.644 429.752 175.348 429.576 174.34 429.576C170.836 429.576 169.172 430.76 169.172 435.32ZM178.437 437.256H182.085V435.832H178.437V437.256ZM188.987 441V429.416L184.395 431.416L184.875 432.728L187.371 431.592V441H188.987ZM201.81 430.024C200.962 429.768 199.81 429.576 198.834 429.576C195.41 429.576 193.842 430.792 193.842 435.352C193.842 439.912 194.978 441.224 198.082 441.224C201.01 441.224 202.178 440.392 202.178 437.656C202.178 435.192 201.154 434.2 198.066 434.2C197.378 434.2 196.338 434.28 195.57 434.424C195.714 431.608 196.658 431.064 198.85 431.064C199.778 431.064 200.77 431.224 201.41 431.464L201.81 430.024ZM195.554 435.816C196.29 435.672 197.25 435.592 198.114 435.592C200.002 435.592 200.466 436.2 200.466 437.784C200.466 439.24 200.034 439.784 198.082 439.784C196.402 439.784 195.602 439.144 195.554 435.816Z" fill="#272727"/>
<path d="M48.7972 304.797C56.5267 297.068 69.0588 297.068 76.7884 304.797L100.586 328.595L72.5946 356.586L48.7972 332.788C41.0676 325.059 41.0676 312.527 48.7972 304.797Z" fill="#D5D5D5" stroke="#D5D5D5" stroke-width="2"/>
<path d="M155 293V411H37V365H84C97.8071 365 109 353.807 109 340V293H155Z" fill="white" stroke="#D5D5D5" stroke-width="2"/>
<path d="M114.172 391.32C114.172 395.864 115.836 397.224 119.34 397.224C120.348 397.224 121.628 397.064 122.492 396.808L122.092 395.352C121.452 395.576 120.348 395.72 119.532 395.72C116.908 395.72 115.932 395.08 115.932 391.336C115.932 387.576 116.908 387.064 119.532 387.064C120.348 387.064 121.452 387.208 122.092 387.448L122.492 385.992C121.644 385.752 120.348 385.576 119.34 385.576C115.836 385.576 114.172 386.76 114.172 391.32ZM123.437 393.256H127.085V391.832H123.437V393.256ZM133.987 397V385.416L129.395 387.416L129.875 388.728L132.371 387.592V397H133.987ZM144.122 391.048C146.106 390.872 146.49 389.768 146.49 388.36C146.49 386.456 145.466 385.576 142.346 385.576C141.066 385.576 139.786 385.8 138.858 386.008L139.21 387.4C139.946 387.16 141.194 387.016 142.154 387.016C144.25 387.016 144.794 387.464 144.794 388.632C144.794 389.928 144.122 390.408 142.474 390.408H141.066V391.768H142.49C144.218 391.768 144.954 392.344 144.954 393.8C144.954 395.256 144.41 395.784 142.09 395.784C141.114 395.784 139.914 395.672 139.098 395.432L138.762 396.792C139.738 397.016 141.146 397.224 142.298 397.224C145.37 397.224 146.714 396.408 146.714 393.96C146.714 392.36 146.234 391.144 144.122 391.048Z" fill="#272727"/>
<path d="M239.212 304.797C246.941 297.068 259.473 297.068 267.203 304.797C274.932 312.527 274.932 325.059 267.203 332.788L243.405 356.586L215.414 328.595L239.212 304.797Z" fill="#D5D5D5" stroke="#D5D5D5" stroke-width="2"/>
<path d="M279 411H161V293H207V340C207 353.807 218.193 365 232 365H279V411Z" fill="white" stroke="#D5D5D5" stroke-width="2"/>
<path d="M169.25 391.32C169.25 395.864 170.914 397.224 174.418 397.224C175.426 397.224 176.706 397.064 177.57 396.808L177.17 395.352C176.53 395.576 175.426 395.72 174.61 395.72C171.986 395.72 171.01 395.08 171.01 391.336C171.01 387.576 171.986 387.064 174.61 387.064C175.426 387.064 176.53 387.208 177.17 387.448L177.57 385.992C176.722 385.752 175.426 385.576 174.418 385.576C170.914 385.576 169.25 386.76 169.25 391.32ZM178.515 393.256H182.163V391.832H178.515V393.256ZM189.065 397V385.416L184.473 387.416L184.953 388.728L187.449 387.592V397H189.065ZM198.976 392.6H195.424C196.112 391.352 197.68 388.76 198.976 387.128V392.6ZM200.544 385.848H198.224C196.56 388.056 194.48 391.448 193.36 393.496V393.944H198.976V397H200.544V393.944H202.08V392.6H200.544V385.848Z" fill="#272727"/>
<path d="M76.7884 263.203C69.0588 270.932 56.5267 270.932 48.7972 263.203C41.0676 255.473 41.0676 242.941 48.7972 235.212L72.5946 211.414L100.586 239.405L76.7884 263.203Z" fill="#D5D5D5" stroke="#D5D5D5" stroke-width="2"/>
<path d="M37 157H155V275H109V228C109 214.193 97.8071 203 84 203H37V157Z" fill="white" stroke="#D5D5D5" stroke-width="2"/>
<path d="M124.306 175.32C124.306 179.864 125.97 181.224 129.474 181.224C130.482 181.224 131.762 181.064 132.626 180.808L132.226 179.352C131.586 179.576 130.482 179.72 129.666 179.72C127.042 179.72 126.066 179.08 126.066 175.336C126.066 171.576 127.042 171.064 129.666 171.064C130.482 171.064 131.586 171.208 132.226 171.448L132.626 169.992C131.778 169.752 130.482 169.576 129.474 169.576C125.97 169.576 124.306 170.76 124.306 175.32ZM133.571 177.256H137.219V175.832H133.571V177.256ZM144.122 175.048C146.106 174.872 146.49 173.768 146.49 172.36C146.49 170.456 145.466 169.576 142.346 169.576C141.066 169.576 139.786 169.8 138.858 170.008L139.21 171.4C139.946 171.16 141.194 171.016 142.154 171.016C144.25 171.016 144.794 171.464 144.794 172.632C144.794 173.928 144.122 174.408 142.474 174.408H141.066V175.768H142.49C144.218 175.768 144.954 176.344 144.954 177.8C144.954 179.256 144.41 179.784 142.09 179.784C141.114 179.784 139.914 179.672 139.098 179.432L138.762 180.792C139.738 181.016 141.146 181.224 142.298 181.224C145.37 181.224 146.714 180.408 146.714 177.96C146.714 176.36 146.234 175.144 144.122 175.048Z" fill="#272727"/>
<path d="M267.203 263.203C259.473 270.932 246.941 270.932 239.212 263.203L215.414 239.405L243.405 211.414L267.203 235.212C274.932 242.941 274.932 255.473 267.203 263.203Z" fill="#D5D5D5" stroke="#D5D5D5" stroke-width="2"/>
<path d="M161 275V157H279V203H232C218.193 203 207 214.193 207 228V275H161Z" fill="white" stroke="#D5D5D5" stroke-width="2"/>
<path d="M169.384 175.32C169.384 179.864 171.048 181.224 174.552 181.224C175.56 181.224 176.84 181.064 177.704 180.808L177.304 179.352C176.664 179.576 175.56 179.72 174.744 179.72C172.12 179.72 171.144 179.08 171.144 175.336C171.144 171.576 172.12 171.064 174.744 171.064C175.56 171.064 176.664 171.208 177.304 171.448L177.704 169.992C176.856 169.752 175.56 169.576 174.552 169.576C171.048 169.576 169.384 170.76 169.384 175.32ZM178.649 177.256H182.297V175.832H178.649V177.256ZM188.976 176.6H185.424C186.112 175.352 187.68 172.76 188.976 171.128V176.6ZM190.544 169.848H188.224C186.56 172.056 184.48 175.448 183.36 177.496V177.944H188.976V181H190.544V177.944H192.08V176.6H190.544V169.848Z" fill="#272727"/>
<path d="M48.7972 44.7972C56.5267 37.0676 69.0588 37.0676 76.7884 44.7972L100.586 68.5946L72.5946 96.5858L48.7972 72.7884C41.0676 65.0588 41.0676 52.5267 48.7972 44.7972Z" fill="#D5D5D5" stroke="#D5D5D5" stroke-width="2"/>
<path d="M155 33V151H37V105H84C97.8071 105 109 93.8071 109 80V33H155Z" fill="white" stroke="#D5D5D5" stroke-width="2"/>
<path d="M124.306 131.32C124.306 135.864 125.97 137.224 129.474 137.224C130.482 137.224 131.762 137.064 132.626 136.808L132.226 135.352C131.586 135.576 130.482 135.72 129.666 135.72C127.042 135.72 126.066 135.08 126.066 131.336C126.066 127.576 127.042 127.064 129.666 127.064C130.482 127.064 131.586 127.208 132.226 127.448L132.626 125.992C131.778 125.752 130.482 125.576 129.474 125.576C125.97 125.576 124.306 126.76 124.306 131.32ZM133.571 133.256H137.219V131.832H133.571V133.256ZM144.122 137V125.416L139.53 127.416L140.01 128.728L142.506 127.592V137H144.122Z" fill="#272727"/>
<path d="M239.212 44.7972C246.941 37.0676 259.473 37.0676 267.203 44.7972C274.932 52.5267 274.932 65.0588 267.203 72.7884L243.405 96.5858L215.414 68.5946L239.212 44.7972Z" fill="#D5D5D5" stroke="#D5D5D5" stroke-width="2"/>
<path d="M279 151H161V33H207V80C207 93.8071 218.193 105 232 105H279V151Z" fill="white" stroke="#D5D5D5" stroke-width="2"/>
<path d="M169.306 131.32C169.306 135.864 170.97 137.224 174.474 137.224C175.482 137.224 176.762 137.064 177.626 136.808L177.226 135.352C176.586 135.576 175.482 135.72 174.666 135.72C172.042 135.72 171.066 135.08 171.066 131.336C171.066 127.576 172.042 127.064 174.666 127.064C175.482 127.064 176.586 127.208 177.226 127.448L177.626 125.992C176.778 125.752 175.482 125.576 174.474 125.576C170.97 125.576 169.306 126.76 169.306 131.32ZM178.571 133.256H182.219V131.832H178.571V133.256ZM185.906 135.608C190.77 132.152 191.618 131.064 191.618 128.776C191.618 126.36 190.306 125.576 187.554 125.576C186.418 125.576 185.186 125.784 184.242 126.056C184.354 126.536 184.482 127 184.61 127.48C185.202 127.24 186.514 127.048 187.458 127.048C189.202 127.048 189.906 127.448 189.906 128.888C189.906 130.68 189.538 131.176 183.73 135.704V137H191.554V135.608H185.906Z" fill="#272727"/>
<path d="M200.788 659.203C193.059 666.932 180.527 666.932 172.797 659.203C165.068 651.473 165.068 638.941 172.797 631.212L196.595 607.414L224.586 635.405L200.788 659.203Z" fill="#D5D5D5" stroke="#D5D5D5" stroke-width="2"/>
<path d="M161 553H279V671H233V624C233 610.193 221.807 599 208 599H161V553Z" fill="white" stroke="#D5D5D5" stroke-width="2"/>
<path d="M238.172 571.32C238.172 575.864 239.836 577.224 243.34 577.224C244.348 577.224 245.628 577.064 246.492 576.808L246.092 575.352C245.452 575.576 244.348 575.72 243.532 575.72C240.908 575.72 239.932 575.08 239.932 571.336C239.932 567.576 240.908 567.064 243.532 567.064C244.348 567.064 245.452 567.208 246.092 567.448L246.492 565.992C245.644 565.752 244.348 565.576 243.34 565.576C239.836 565.576 238.172 566.76 238.172 571.32ZM247.437 573.256H251.085V571.832H247.437V573.256ZM257.987 577V565.416L253.395 567.416L253.875 568.728L256.371 567.592V577H257.987ZM271.354 565.848H263.13V567.24H269.178C267.738 569.4 265.834 573.592 264.586 577H266.442C267.53 573.816 269.738 568.984 271.354 566.376V565.848Z" fill="#272727"/>
<rect x="786" width="64" height="8" fill="#F7F7F7"/>
<rect x="663" width="64" height="8" fill="#F7F7F7"/>
<rect x="540" width="64" height="8" fill="#F7F7F7"/>
<rect x="417" width="64" height="8" fill="#F7F7F7"/>
<rect x="294" width="64" height="8" fill="#F7F7F7"/>
<rect x="171" width="64" height="8" fill="#F7F7F7"/>
<rect x="48" width="64" height="8" fill="#F7F7F7"/>
<rect width="96" height="8" transform="matrix(-1 0 0 1 849 684)" fill="#F7F7F7"/>
<path d="M853 685.063L769.994 637L766 643.937L849.006 692L853 685.063Z" fill="#D5D5D5"/>
</svg>
