<svg width="530" height="692" viewBox="0 0 530 692" fill="none" xmlns="http://www.w3.org/2000/svg">
<mask id="path-1-inside-1" fill="white">
<path d="M0 0H530V692H0V0Z"/>
</mask>
<path d="M0 0H530V692H0V0Z" fill="#F7F7F7"/>
<path d="M0 0V-8H-8V0H0ZM530 0H538V-8H530V0ZM530 692V700H538V692H530ZM0 692H-8V700H0V692ZM0 8H530V-8H0V8ZM522 0V692H538V0H522ZM530 684H0V700H530V684ZM8 692V0H-8V692H8Z" fill="#D5D5D5" mask="url(#path-1-inside-1)"/>
<g clip-path="url(#clip0)">
<path d="M462.858 508.444C470.783 500.519 483.632 500.519 491.556 508.444C499.481 516.368 499.481 529.217 491.556 537.142L467.405 561.293L438.707 532.595L462.858 508.444Z" fill="#D5D5D5" stroke="#D5D5D5"/>
<path d="M437 473V591H379V473H437Z" fill="white" stroke="#D5D5D5" stroke-width="2"/>
<path d="M387.545 485.848V497H394.681V495.576H389.161V485.848H387.545ZM395.437 493.256H399.085V491.832H395.437V493.256ZM405.987 497V485.416L401.395 487.416L401.875 488.728L404.371 487.592V497H405.987ZM412.906 495.608C417.77 492.152 418.618 491.064 418.618 488.776C418.618 486.36 417.306 485.576 414.554 485.576C413.418 485.576 412.186 485.784 411.242 486.056C411.354 486.536 411.482 487 411.61 487.48C412.202 487.24 413.514 487.048 414.458 487.048C416.202 487.048 416.906 487.448 416.906 488.888C416.906 490.68 416.538 491.176 410.73 495.704V497H418.554V495.608H412.906Z" fill="#272727"/>
</g>
<g clip-path="url(#clip1)">
<path d="M462.858 384.444C470.783 376.519 483.632 376.519 491.556 384.444C499.481 392.368 499.481 405.217 491.556 413.142L467.405 437.293L438.707 408.595L462.858 384.444Z" fill="#D5D5D5" stroke="#D5D5D5"/>
<path d="M437 349V467H379V349H437Z" fill="white" stroke="#D5D5D5" stroke-width="2"/>
<path d="M387.545 361.848V373H394.681V371.576H389.161V361.848H387.545ZM395.437 369.256H399.085V367.832H395.437V369.256ZM405.987 373V361.416L401.395 363.416L401.875 364.728L404.371 363.592V373H405.987ZM416.122 373V361.416L411.53 363.416L412.01 364.728L414.506 363.592V373H416.122Z" fill="#272727"/>
</g>
<path d="M72.7884 579.203C65.0588 586.932 52.5267 586.932 44.7972 579.203C37.0676 571.473 37.0676 558.941 44.7972 551.212L68.5946 527.414L96.5858 555.405L72.7884 579.203Z" fill="#D5D5D5" stroke="#D5D5D5" stroke-width="2"/>
<path d="M33 473H151V591H105V544C105 530.193 93.8071 519 80 519H33V473Z" fill="white" stroke="#D5D5D5" stroke-width="2"/>
<path d="M121.679 485.848V497H128.815V495.576H123.295V485.848H121.679ZM129.571 493.256H133.219V491.832H129.571V493.256ZM136.746 497H138.858C140.938 495.096 143.002 492.712 143.002 489.448C143.002 486.376 142.042 485.576 138.842 485.576C135.914 485.576 134.746 486.568 134.746 489.304C134.746 491.768 135.77 492.6 138.858 492.6C139.274 492.6 140.042 492.552 140.618 492.472C139.834 494.072 138.346 495.576 136.746 497ZM138.97 491.208C136.922 491.208 136.458 490.84 136.458 489.192C136.458 487.72 136.874 487 138.842 487C140.618 487 141.29 487.256 141.29 489.656C141.29 490.152 141.242 490.616 141.114 491.048C140.458 491.16 139.674 491.208 138.97 491.208Z" fill="#272727"/>
<path d="M263.203 579.203C255.473 586.932 242.941 586.932 235.212 579.203L211.414 555.405L239.405 527.414L263.203 551.212C270.932 558.941 270.932 571.473 263.203 579.203Z" fill="#D5D5D5" stroke="#D5D5D5" stroke-width="2"/>
<path d="M157 591V473H275V519H228C214.193 519 203 530.193 203 544V591H157Z" fill="white" stroke="#D5D5D5" stroke-width="2"/>
<path d="M165.545 485.848V497H172.681V495.576H167.161V485.848H165.545ZM173.437 493.256H177.085V491.832H173.437V493.256ZM183.987 497V485.416L179.395 487.416L179.875 488.728L182.371 487.592V497H183.987ZM192.858 485.576C190.138 485.576 188.778 486.76 188.778 491.272C188.778 495.848 190.138 497.224 192.858 497.224C195.594 497.224 196.922 495.848 196.922 491.272C196.922 486.76 195.578 485.576 192.858 485.576ZM192.842 495.768C191.05 495.768 190.426 494.904 190.426 491.272C190.426 487.528 191.05 486.968 192.842 486.968C194.698 486.968 195.29 487.528 195.29 491.272C195.29 494.904 194.698 495.768 192.842 495.768Z" fill="#272727"/>
<path d="M44.7972 360.797C52.5267 353.068 65.0588 353.068 72.7884 360.797L96.5858 384.595L68.5946 412.586L44.7972 388.788C37.0676 381.059 37.0676 368.527 44.7972 360.797Z" fill="#D5D5D5" stroke="#D5D5D5" stroke-width="2"/>
<path d="M151 349V467H33V421H80C93.8071 421 105 409.807 105 396V349H151Z" fill="white" stroke="#D5D5D5" stroke-width="2"/>
<path d="M121.679 441.848V453H128.815V451.576H123.295V441.848H121.679ZM129.571 449.256H133.219V447.832H129.571V449.256ZM143.354 441.848H135.13V443.24H141.178C139.738 445.4 137.834 449.592 136.586 453H138.442C139.53 449.816 141.738 444.984 143.354 442.376V441.848Z" fill="#272727"/>
<path d="M235.212 360.797C242.941 353.068 255.473 353.068 263.203 360.797C270.932 368.527 270.932 381.059 263.203 388.788L239.405 412.586L211.414 384.595L235.212 360.797Z" fill="#D5D5D5" stroke="#D5D5D5" stroke-width="2"/>
<path d="M275 467H157V349H203V396C203 409.807 214.193 421 228 421H275V467Z" fill="white" stroke="#D5D5D5" stroke-width="2"/>
<path d="M165.679 441.848V453H172.815V451.576H167.295V441.848H165.679ZM173.571 449.256H177.219V447.832H173.571V449.256ZM182.858 451.88C181.034 451.88 180.49 451.32 180.49 449.848C180.49 448.312 181.146 447.736 182.858 447.736C184.57 447.736 185.226 448.312 185.226 449.848C185.226 451.32 184.682 451.88 182.858 451.88ZM182.858 446.44C181.354 446.44 180.714 445.912 180.714 444.6C180.714 443.384 181.258 442.936 182.858 442.936C184.458 442.936 185.002 443.384 185.002 444.6C185.002 445.912 184.378 446.44 182.858 446.44ZM182.858 453.224C185.69 453.224 186.938 452.392 186.938 449.96C186.938 448.36 186.458 447.144 184.346 447.048C186.346 446.872 186.682 445.752 186.682 444.36C186.682 442.488 185.722 441.576 182.858 441.576C179.994 441.576 179.05 442.488 179.05 444.36C179.05 445.752 179.386 446.872 181.386 447.048C179.258 447.144 178.778 448.36 178.778 449.96C178.778 452.392 180.042 453.224 182.858 453.224Z" fill="#272727"/>
<path d="M72.7884 271.203C65.0588 278.932 52.5267 278.932 44.7972 271.203C37.0676 263.473 37.0676 250.941 44.7972 243.212L68.5946 219.414L96.5858 247.405L72.7884 271.203Z" fill="#D5D5D5" stroke="#D5D5D5" stroke-width="2"/>
<path d="M33 165H151V283H105V236C105 222.193 93.8071 211 80 211H33V165Z" fill="white" stroke="#D5D5D5" stroke-width="2"/>
<path d="M121.679 177.848V189H128.815V187.576H123.295V177.848H121.679ZM129.571 185.256H133.219V183.832H129.571V185.256ZM140.122 183.048C142.106 182.872 142.49 181.768 142.49 180.36C142.49 178.456 141.466 177.576 138.346 177.576C137.066 177.576 135.786 177.8 134.858 178.008L135.21 179.4C135.946 179.16 137.194 179.016 138.154 179.016C140.25 179.016 140.794 179.464 140.794 180.632C140.794 181.928 140.122 182.408 138.474 182.408H137.066V183.768H138.49C140.218 183.768 140.954 184.344 140.954 185.8C140.954 187.256 140.41 187.784 138.09 187.784C137.114 187.784 135.914 187.672 135.098 187.432L134.762 188.792C135.738 189.016 137.146 189.224 138.298 189.224C141.37 189.224 142.714 188.408 142.714 185.96C142.714 184.36 142.234 183.144 140.122 183.048Z" fill="#272727"/>
<path d="M263.203 271.203C255.473 278.932 242.941 278.932 235.212 271.203L211.414 247.405L239.405 219.414L263.203 243.212C270.932 250.941 270.932 263.473 263.203 271.203Z" fill="#D5D5D5" stroke="#D5D5D5" stroke-width="2"/>
<path d="M157 283V165H275V211H228C214.193 211 203 222.193 203 236V283H157Z" fill="white" stroke="#D5D5D5" stroke-width="2"/>
<path d="M165.757 177.848V189H172.893V187.576H167.373V177.848H165.757ZM173.649 185.256H177.297V183.832H173.649V185.256ZM183.976 184.6H180.424C181.112 183.352 182.68 180.76 183.976 179.128V184.6ZM185.544 177.848H183.224C181.56 180.056 179.48 183.448 178.36 185.496V185.944H183.976V189H185.544V185.944H187.08V184.6H185.544V177.848Z" fill="#272727"/>
<path d="M44.7972 52.7972C52.5267 45.0676 65.0588 45.0676 72.7884 52.7972L96.5858 76.5946L68.5946 104.586L44.7972 80.7884C37.0676 73.0588 37.0676 60.5267 44.7972 52.7972Z" fill="#D5D5D5" stroke="#D5D5D5" stroke-width="2"/>
<path d="M151 41V159H33V113H80C93.8071 113 105 101.807 105 88V41H151Z" fill="white" stroke="#D5D5D5" stroke-width="2"/>
<path d="M121.679 133.848V145H128.815V143.576H123.295V133.848H121.679ZM129.571 141.256H133.219V139.832H129.571V141.256ZM140.122 145V133.416L135.53 135.416L136.01 136.728L138.506 135.592V145H140.122Z" fill="#272727"/>
<path d="M235.212 52.7972C242.941 45.0676 255.473 45.0676 263.203 52.7972C270.932 60.5267 270.932 73.0588 263.203 80.7884L239.405 104.586L211.414 76.5946L235.212 52.7972Z" fill="#D5D5D5" stroke="#D5D5D5" stroke-width="2"/>
<path d="M275 159H157V41H203V88C203 101.807 214.193 113 228 113H275V159Z" fill="white" stroke="#D5D5D5" stroke-width="2"/>
<path d="M165.679 133.848V145H172.815V143.576H167.295V133.848H165.679ZM173.571 141.256H177.219V139.832H173.571V141.256ZM180.906 143.608C185.77 140.152 186.618 139.064 186.618 136.776C186.618 134.36 185.306 133.576 182.554 133.576C181.418 133.576 180.186 133.784 179.242 134.056C179.354 134.536 179.482 135 179.61 135.48C180.202 135.24 181.514 135.048 182.458 135.048C184.202 135.048 184.906 135.448 184.906 136.888C184.906 138.68 184.538 139.176 178.73 143.704V145H186.554V143.608H180.906Z" fill="#272727"/>
<path d="M485.203 271.203C477.473 278.932 464.941 278.932 457.212 271.203L433.414 247.405L461.405 219.414L485.203 243.212C492.932 250.941 492.932 263.473 485.203 271.203Z" fill="#D5D5D5" stroke="#D5D5D5" stroke-width="2"/>
<path d="M379 283V165H497V211H450C436.193 211 425 222.193 425 236V283H379Z" fill="white" stroke="#D5D5D5" stroke-width="2"/>
<path d="M387.679 177.848V189H394.815V187.576H389.295V177.848H387.679ZM395.571 185.256H399.219V183.832H395.571V185.256ZM408.81 178.024C407.962 177.768 406.81 177.576 405.834 177.576C402.41 177.576 400.842 178.792 400.842 183.352C400.842 187.912 401.978 189.224 405.082 189.224C408.01 189.224 409.178 188.392 409.178 185.656C409.178 183.192 408.154 182.2 405.066 182.2C404.378 182.2 403.338 182.28 402.57 182.424C402.714 179.608 403.658 179.064 405.85 179.064C406.778 179.064 407.77 179.224 408.41 179.464L408.81 178.024ZM402.554 183.816C403.29 183.672 404.25 183.592 405.114 183.592C407.002 183.592 407.466 184.2 407.466 185.784C407.466 187.24 407.034 187.784 405.082 187.784C403.402 187.784 402.602 187.144 402.554 183.816Z" fill="#272727"/>
<path d="M457.212 52.7972C464.941 45.0676 477.473 45.0676 485.203 52.7972C492.932 60.5267 492.932 73.0588 485.203 80.7884L461.405 104.586L433.414 76.5946L457.212 52.7972Z" fill="#D5D5D5" stroke="#D5D5D5" stroke-width="2"/>
<path d="M497 159H379V41H425V88C425 101.807 436.193 113 450 113H497V159Z" fill="white" stroke="#D5D5D5" stroke-width="2"/>
<path d="M387.679 133.848V145H394.815V143.576H389.295V133.848H387.679ZM395.571 141.256H399.219V139.832H395.571V141.256ZM403.082 135.24H408.122V133.848H401.514V139.848C402.282 139.688 403.386 139.592 404.346 139.592C406.49 139.592 406.97 140.12 406.97 141.784C406.97 143.272 406.442 143.784 404.17 143.784C403.194 143.784 402.138 143.672 401.354 143.432L401.002 144.792C401.946 145.016 403.194 145.224 404.362 145.224C407.466 145.224 408.73 144.392 408.73 141.656C408.73 139.192 407.722 138.2 404.65 138.2C404.09 138.2 403.562 138.232 403.082 138.28V135.24Z" fill="#272727"/>
<rect x="417" width="64" height="8" fill="#F7F7F7"/>
<rect x="294" width="64" height="8" fill="#F7F7F7"/>
<rect x="171" width="64" height="8" fill="#F7F7F7"/>
<rect width="96" height="8" transform="matrix(-1 0 0 1 425 684)" fill="#F7F7F7"/>
<path d="M429 685.063L345.994 637L342 643.937L425.006 692L429 685.063Z" fill="#D5D5D5"/>
<defs>
<clipPath id="clip0">
<rect width="120" height="120" fill="white" transform="translate(378 472)"/>
</clipPath>
<clipPath id="clip1">
<rect width="120" height="120" fill="white" transform="translate(378 348)"/>
</clipPath>
</defs>
</svg>
