<svg width="825" height="636" viewBox="0 0 825 636" fill="none" xmlns="http://www.w3.org/2000/svg">
<rect x="4" y="4" width="817" height="628" fill="#F7F7F7" stroke="#D5D5D5" stroke-width="8"/>
<path d="M107.556 605.556C99.6316 613.481 86.7829 613.481 78.8581 605.556L54.7071 581.405L83.4054 552.707L107.556 576.858C115.481 584.783 115.481 597.632 107.556 605.556Z" fill="#D5D5D5" stroke="#D5D5D5"/>
<rect x="25" y="493" width="118" height="58" fill="white" stroke="#D5D5D5" stroke-width="2"/>
<path d="M103.725 513.608C102.733 511.048 101.533 508.328 100.349 505.848H98.045V517H99.613V507.912C100.765 510.424 101.965 513.336 102.989 515.88H104.237C105.277 513.368 106.509 510.488 107.693 507.912V517H109.293V505.848H107.117C105.917 508.312 104.717 511.032 103.725 513.608ZM111.437 513.256H115.085V511.832H111.437V513.256ZM121.987 517V505.416L117.395 507.416L117.875 508.728L120.371 507.592V517H121.987ZM130.858 505.576C128.138 505.576 126.778 506.76 126.778 511.272C126.778 515.848 128.138 517.224 130.858 517.224C133.594 517.224 134.922 515.848 134.922 511.272C134.922 506.76 133.578 505.576 130.858 505.576ZM130.842 515.768C129.05 515.768 128.426 514.904 128.426 511.272C128.426 507.528 129.05 506.968 130.842 506.968C132.698 506.968 133.29 507.528 133.29 511.272C133.29 514.904 132.698 515.768 130.842 515.768Z" fill="#272727"/>
<path d="M59.1419 451.556C51.2171 459.481 38.3684 459.481 30.4436 451.556C22.5188 443.632 22.5188 430.783 30.4436 422.858L54.5946 398.707L83.2929 427.405L59.1419 451.556Z" fill="#D5D5D5" stroke="#D5D5D5"/>
<rect x="85" y="487" width="118" height="58" transform="rotate(-90 85 487)" fill="white" stroke="#D5D5D5" stroke-width="2"/>
<path d="M113.859 469.608C112.867 467.048 111.667 464.328 110.483 461.848H108.179V473H109.747V463.912C110.899 466.424 112.099 469.336 113.123 471.88H114.371C115.411 469.368 116.643 466.488 117.827 463.912V473H119.427V461.848H117.251C116.051 464.312 114.851 467.032 113.859 469.608ZM121.571 469.256H125.219V467.832H121.571V469.256ZM128.746 473H130.858C132.938 471.096 135.002 468.712 135.002 465.448C135.002 462.376 134.042 461.576 130.842 461.576C127.914 461.576 126.746 462.568 126.746 465.304C126.746 467.768 127.77 468.6 130.858 468.6C131.274 468.6 132.042 468.552 132.618 468.472C131.834 470.072 130.346 471.576 128.746 473ZM130.97 467.208C128.922 467.208 128.458 466.84 128.458 465.192C128.458 463.72 128.874 463 130.842 463C132.618 463 133.29 463.256 133.29 465.656C133.29 466.152 133.242 466.616 133.114 467.048C132.458 467.16 131.674 467.208 130.97 467.208Z" fill="#272727"/>
<path d="M525.788 575.203C518.059 582.932 505.527 582.932 497.797 575.203C490.068 567.473 490.068 554.941 497.797 547.212L521.595 523.414L549.586 551.405L525.788 575.203Z" fill="#D5D5D5" stroke="#D5D5D5" stroke-width="2"/>
<path d="M486 469H604V587H558V540C558 526.193 546.807 515 533 515H486V469Z" fill="white" stroke="#D5D5D5" stroke-width="2"/>
<path d="M564.725 489.608C563.733 487.048 562.533 484.328 561.349 481.848H559.045V493H560.613V483.912C561.765 486.424 562.965 489.336 563.989 491.88H565.237C566.277 489.368 567.509 486.488 568.693 483.912V493H570.293V481.848H568.117C566.917 484.312 565.717 487.032 564.725 489.608ZM572.437 489.256H576.085V487.832H572.437V489.256ZM582.987 493V481.416L578.395 483.416L578.875 484.728L581.371 483.592V493H582.987ZM593.122 487.048C595.106 486.872 595.49 485.768 595.49 484.36C595.49 482.456 594.466 481.576 591.346 481.576C590.066 481.576 588.786 481.8 587.858 482.008L588.21 483.4C588.946 483.16 590.194 483.016 591.154 483.016C593.25 483.016 593.794 483.464 593.794 484.632C593.794 485.928 593.122 486.408 591.474 486.408H590.066V487.768H591.49C593.218 487.768 593.954 488.344 593.954 489.8C593.954 491.256 593.41 491.784 591.09 491.784C590.114 491.784 588.914 491.672 588.098 491.432L587.762 492.792C588.738 493.016 590.146 493.224 591.298 493.224C594.37 493.224 595.714 492.408 595.714 489.96C595.714 488.36 595.234 487.144 593.122 487.048Z" fill="#272727"/>
<path d="M716.203 575.203C708.473 582.932 695.941 582.932 688.212 575.203L664.414 551.405L692.405 523.414L716.203 547.212C723.932 554.941 723.932 567.473 716.203 575.203Z" fill="#D5D5D5" stroke="#D5D5D5" stroke-width="2"/>
<path d="M610 587V469H728V515H681C667.193 515 656 526.193 656 540V587H610Z" fill="white" stroke="#D5D5D5" stroke-width="2"/>
<path d="M624.803 489.608C623.811 487.048 622.611 484.328 621.427 481.848H619.123V493H620.691V483.912C621.843 486.424 623.043 489.336 624.067 491.88H625.315C626.355 489.368 627.587 486.488 628.771 483.912V493H630.371V481.848H628.195C626.995 484.312 625.795 487.032 624.803 489.608ZM632.515 489.256H636.163V487.832H632.515V489.256ZM643.065 493V481.416L638.473 483.416L638.953 484.728L641.449 483.592V493H643.065ZM652.976 488.6H649.424C650.112 487.352 651.68 484.76 652.976 483.128V488.6ZM654.544 481.848H652.224C650.56 484.056 648.48 487.448 647.36 489.496V489.944H652.976V493H654.544V489.944H656.08V488.6H654.544V481.848Z" fill="#272727"/>
<path d="M497.797 356.797C505.527 349.068 518.059 349.068 525.788 356.797L549.586 380.595L521.595 408.586L497.797 384.788C490.068 377.059 490.068 364.527 497.797 356.797Z" fill="#D5D5D5" stroke="#D5D5D5" stroke-width="2"/>
<path d="M604 345V463H486V417H533C546.807 417 558 405.807 558 392V345H604Z" fill="white" stroke="#D5D5D5" stroke-width="2"/>
<path d="M564.725 445.608C563.733 443.048 562.533 440.328 561.349 437.848H559.045V449H560.613V439.912C561.765 442.424 562.965 445.336 563.989 447.88H565.237C566.277 445.368 567.509 442.488 568.693 439.912V449H570.293V437.848H568.117C566.917 440.312 565.717 443.032 564.725 445.608ZM572.437 445.256H576.085V443.832H572.437V445.256ZM582.987 449V437.416L578.395 439.416L578.875 440.728L581.371 439.592V449H582.987ZM593.122 449V437.416L588.53 439.416L589.01 440.728L591.506 439.592V449H593.122Z" fill="#272727"/>
<path d="M688.212 356.797C695.941 349.068 708.473 349.068 716.203 356.797C723.932 364.527 723.932 377.059 716.203 384.788L692.405 408.586L664.414 380.595L688.212 356.797Z" fill="#D5D5D5" stroke="#D5D5D5" stroke-width="2"/>
<path d="M728 463H610V345H656V392C656 405.807 667.193 417 681 417H728V463Z" fill="white" stroke="#D5D5D5" stroke-width="2"/>
<path d="M624.725 445.608C623.733 443.048 622.533 440.328 621.349 437.848H619.045V449H620.613V439.912C621.765 442.424 622.965 445.336 623.989 447.88H625.237C626.277 445.368 627.509 442.488 628.693 439.912V449H630.293V437.848H628.117C626.917 440.312 625.717 443.032 624.725 445.608ZM632.437 445.256H636.085V443.832H632.437V445.256ZM642.987 449V437.416L638.395 439.416L638.875 440.728L641.371 439.592V449H642.987ZM649.906 447.608C654.77 444.152 655.618 443.064 655.618 440.776C655.618 438.36 654.306 437.576 651.554 437.576C650.418 437.576 649.186 437.784 648.242 438.056C648.354 438.536 648.482 439 648.61 439.48C649.202 439.24 650.514 439.048 651.458 439.048C653.202 439.048 653.906 439.448 653.906 440.888C653.906 442.68 653.538 443.176 647.73 447.704V449H655.554V447.608H649.906Z" fill="#272727"/>
<path d="M557.788 255.203C550.059 262.932 537.527 262.932 529.797 255.203C522.068 247.473 522.068 234.941 529.797 227.212L553.595 203.414L581.586 231.405L557.788 255.203Z" fill="#D5D5D5" stroke="#D5D5D5" stroke-width="2"/>
<path d="M518 149H636V267H590V220C590 206.193 578.807 195 565 195H518V149Z" fill="white" stroke="#D5D5D5" stroke-width="2"/>
<path d="M606.859 169.608C605.867 167.048 604.667 164.328 603.483 161.848H601.179V173H602.747V163.912C603.899 166.424 605.099 169.336 606.123 171.88H607.371C608.411 169.368 609.643 166.488 610.827 163.912V173H612.427V161.848H610.251C609.051 164.312 607.851 167.032 606.859 169.608ZM614.571 169.256H618.219V167.832H614.571V169.256ZM628.354 161.848H620.13V163.24H626.178C624.738 165.4 622.834 169.592 621.586 173H623.442C624.53 169.816 626.738 164.984 628.354 162.376V161.848Z" fill="#272727"/>
<path d="M748.203 255.203C740.473 262.932 727.941 262.932 720.212 255.203L696.414 231.405L724.405 203.414L748.203 227.212C755.932 234.941 755.932 247.473 748.203 255.203Z" fill="#D5D5D5" stroke="#D5D5D5" stroke-width="2"/>
<path d="M642 267V149H760V195H713C699.193 195 688 206.193 688 220V267H642Z" fill="white" stroke="#D5D5D5" stroke-width="2"/>
<path d="M656.859 169.608C655.867 167.048 654.667 164.328 653.483 161.848H651.179V173H652.747V163.912C653.899 166.424 655.099 169.336 656.123 171.88H657.371C658.411 169.368 659.643 166.488 660.827 163.912V173H662.427V161.848H660.251C659.051 164.312 657.851 167.032 656.859 169.608ZM664.571 169.256H668.219V167.832H664.571V169.256ZM673.858 171.88C672.034 171.88 671.49 171.32 671.49 169.848C671.49 168.312 672.146 167.736 673.858 167.736C675.57 167.736 676.226 168.312 676.226 169.848C676.226 171.32 675.682 171.88 673.858 171.88ZM673.858 166.44C672.354 166.44 671.714 165.912 671.714 164.6C671.714 163.384 672.258 162.936 673.858 162.936C675.458 162.936 676.002 163.384 676.002 164.6C676.002 165.912 675.378 166.44 673.858 166.44ZM673.858 173.224C676.69 173.224 677.938 172.392 677.938 169.96C677.938 168.36 677.458 167.144 675.346 167.048C677.346 166.872 677.682 165.752 677.682 164.36C677.682 162.488 676.722 161.576 673.858 161.576C670.994 161.576 670.05 162.488 670.05 164.36C670.05 165.752 670.386 166.872 672.386 167.048C670.258 167.144 669.778 168.36 669.778 169.96C669.778 172.392 671.042 173.224 673.858 173.224Z" fill="#272727"/>
<path d="M529.797 36.7972C537.527 29.0676 550.059 29.0676 557.788 36.7972L581.586 60.5946L553.595 88.5858L529.797 64.7884C522.068 57.0588 522.068 44.5267 529.797 36.7972Z" fill="#D5D5D5" stroke="#D5D5D5" stroke-width="2"/>
<path d="M636 25V143H518V97H565C578.807 97 590 85.8071 590 72V25H636Z" fill="white" stroke="#D5D5D5" stroke-width="2"/>
<path d="M606.859 125.608C605.867 123.048 604.667 120.328 603.483 117.848H601.179V129H602.747V119.912C603.899 122.424 605.099 125.336 606.123 127.88H607.371C608.411 125.368 609.643 122.488 610.827 119.912V129H612.427V117.848H610.251C609.051 120.312 607.851 123.032 606.859 125.608ZM614.571 125.256H618.219V123.832H614.571V125.256ZM622.082 119.24H627.122V117.848H620.514V123.848C621.282 123.688 622.386 123.592 623.346 123.592C625.49 123.592 625.97 124.12 625.97 125.784C625.97 127.272 625.442 127.784 623.17 127.784C622.194 127.784 621.138 127.672 620.354 127.432L620.002 128.792C620.946 129.016 622.194 129.224 623.362 129.224C626.466 129.224 627.73 128.392 627.73 125.656C627.73 123.192 626.722 122.2 623.65 122.2C623.09 122.2 622.562 122.232 622.082 122.28V119.24Z" fill="#272727"/>
<path d="M720.212 36.7972C727.941 29.0676 740.473 29.0676 748.203 36.7972C755.932 44.5267 755.932 57.0588 748.203 64.7884L724.405 88.5858L696.414 60.5946L720.212 36.7972Z" fill="#D5D5D5" stroke="#D5D5D5" stroke-width="2"/>
<path d="M760 143H642V25H688V72C688 85.8071 699.193 97 713 97H760V143Z" fill="white" stroke="#D5D5D5" stroke-width="2"/>
<path d="M656.859 125.608C655.867 123.048 654.667 120.328 653.483 117.848H651.179V129H652.747V119.912C653.899 122.424 655.099 125.336 656.123 127.88H657.371C658.411 125.368 659.643 122.488 660.827 119.912V129H662.427V117.848H660.251C659.051 120.312 657.851 123.032 656.859 125.608ZM664.571 125.256H668.219V123.832H664.571V125.256ZM677.81 118.024C676.962 117.768 675.81 117.576 674.834 117.576C671.41 117.576 669.842 118.792 669.842 123.352C669.842 127.912 670.978 129.224 674.082 129.224C677.01 129.224 678.178 128.392 678.178 125.656C678.178 123.192 677.154 122.2 674.066 122.2C673.378 122.2 672.338 122.28 671.57 122.424C671.714 119.608 672.658 119.064 674.85 119.064C675.778 119.064 676.77 119.224 677.41 119.464L677.81 118.024ZM671.554 123.816C672.29 123.672 673.25 123.592 674.114 123.592C676.002 123.592 676.466 124.2 676.466 125.784C676.466 127.24 676.034 127.784 674.082 127.784C672.402 127.784 671.602 127.144 671.554 123.816Z" fill="#272727"/>
<path d="M181.788 279.203C174.059 286.932 161.527 286.932 153.797 279.203C146.068 271.473 146.068 258.941 153.797 251.212L177.595 227.414L205.586 255.405L181.788 279.203Z" fill="#D5D5D5" stroke="#D5D5D5" stroke-width="2"/>
<path d="M142 173H260V291H214V244C214 230.193 202.807 219 189 219H142V173Z" fill="white" stroke="#D5D5D5" stroke-width="2"/>
<path d="M230.859 193.608C229.867 191.048 228.667 188.328 227.483 185.848H225.179V197H226.747V187.912C227.899 190.424 229.099 193.336 230.123 195.88H231.371C232.411 193.368 233.643 190.488 234.827 187.912V197H236.427V185.848H234.251C233.051 188.312 231.851 191.032 230.859 193.608ZM238.571 193.256H242.219V191.832H238.571V193.256ZM249.122 191.048C251.106 190.872 251.49 189.768 251.49 188.36C251.49 186.456 250.466 185.576 247.346 185.576C246.066 185.576 244.786 185.8 243.858 186.008L244.21 187.4C244.946 187.16 246.194 187.016 247.154 187.016C249.25 187.016 249.794 187.464 249.794 188.632C249.794 189.928 249.122 190.408 247.474 190.408H246.066V191.768H247.49C249.218 191.768 249.954 192.344 249.954 193.8C249.954 195.256 249.41 195.784 247.09 195.784C246.114 195.784 244.914 195.672 244.098 195.432L243.762 196.792C244.738 197.016 246.146 197.224 247.298 197.224C250.37 197.224 251.714 196.408 251.714 193.96C251.714 192.36 251.234 191.144 249.122 191.048Z" fill="#272727"/>
<path d="M372.203 279.203C364.473 286.932 351.941 286.932 344.212 279.203L320.414 255.405L348.405 227.414L372.203 251.212C379.932 258.941 379.932 271.473 372.203 279.203Z" fill="#D5D5D5" stroke="#D5D5D5" stroke-width="2"/>
<path d="M266 291V173H384V219H337C323.193 219 312 230.193 312 244V291H266Z" fill="white" stroke="#D5D5D5" stroke-width="2"/>
<path d="M280.937 193.608C279.945 191.048 278.745 188.328 277.561 185.848H275.257V197H276.825V187.912C277.977 190.424 279.177 193.336 280.201 195.88H281.449C282.49 193.368 283.721 190.488 284.905 187.912V197H286.505V185.848H284.33C283.129 188.312 281.929 191.032 280.937 193.608ZM288.649 193.256H292.297V191.832H288.649V193.256ZM298.976 192.6H295.424C296.112 191.352 297.68 188.76 298.976 187.128V192.6ZM300.544 185.848H298.224C296.56 188.056 294.48 191.448 293.36 193.496V193.944H298.976V197H300.544V193.944H302.08V192.6H300.544V185.848Z" fill="#272727"/>
<path d="M153.797 60.7972C161.527 53.0676 174.059 53.0676 181.788 60.7972L205.586 84.5946L177.595 112.586L153.797 88.7884C146.068 81.0588 146.068 68.5267 153.797 60.7972Z" fill="#D5D5D5" stroke="#D5D5D5" stroke-width="2"/>
<path d="M260 49V167H142V121H189C202.807 121 214 109.807 214 96V49H260Z" fill="white" stroke="#D5D5D5" stroke-width="2"/>
<path d="M230.859 149.608C229.867 147.048 228.667 144.328 227.483 141.848H225.179V153H226.747V143.912C227.899 146.424 229.099 149.336 230.123 151.88H231.371C232.411 149.368 233.643 146.488 234.827 143.912V153H236.427V141.848H234.251C233.051 144.312 231.851 147.032 230.859 149.608ZM238.571 149.256H242.219V147.832H238.571V149.256ZM249.122 153V141.416L244.53 143.416L245.01 144.728L247.506 143.592V153H249.122Z" fill="#272727"/>
<path d="M344.212 60.7972C351.941 53.0676 364.473 53.0676 372.203 60.7972C379.932 68.5267 379.932 81.0588 372.203 88.7884L348.405 112.586L320.414 84.5946L344.212 60.7972Z" fill="#D5D5D5" stroke="#D5D5D5" stroke-width="2"/>
<path d="M384 167H266V49H312V96C312 109.807 323.193 121 337 121H384V167Z" fill="white" stroke="#D5D5D5" stroke-width="2"/>
<path d="M280.859 149.608C279.867 147.048 278.667 144.328 277.483 141.848H275.179V153H276.747V143.912C277.899 146.424 279.099 149.336 280.123 151.88H281.371C282.411 149.368 283.643 146.488 284.827 143.912V153H286.427V141.848H284.251C283.051 144.312 281.851 147.032 280.859 149.608ZM288.571 149.256H292.219V147.832H288.571V149.256ZM295.906 151.608C300.77 148.152 301.618 147.064 301.618 144.776C301.618 142.36 300.306 141.576 297.554 141.576C296.418 141.576 295.186 141.784 294.242 142.056C294.354 142.536 294.482 143 294.61 143.48C295.202 143.24 296.514 143.048 297.458 143.048C299.202 143.048 299.906 143.448 299.906 144.888C299.906 146.68 299.538 147.176 293.73 151.704V153H301.554V151.608H295.906Z" fill="#272727"/>
<rect x="681" width="64" height="8" fill="#F7F7F7"/>
<rect x="531" width="64" height="8" fill="#F7F7F7"/>
<rect x="381" width="64" height="8" fill="#F7F7F7"/>
<rect x="231" width="64" height="8" fill="#F7F7F7"/>
<rect x="81" width="64" height="8" fill="#F7F7F7"/>
<rect x="276" y="628" width="96" height="8" fill="#F7F7F7"/>
<path d="M272 629.063L355.006 581L359 587.937L275.994 636L272 629.063Z" fill="#D5D5D5"/>
</svg>
