<svg width="530" height="598" viewBox="0 0 530 598" fill="none" xmlns="http://www.w3.org/2000/svg">
<rect x="4" y="4" width="522" height="590" fill="#F7F7F7" stroke="#D5D5D5" stroke-width="8"/>
<path d="M294.788 553.203C287.059 560.932 274.527 560.932 266.797 553.203C259.068 545.473 259.068 532.941 266.797 525.212L290.595 501.414L318.586 529.405L294.788 553.203Z" fill="#D5D5D5" stroke="#D5D5D5" stroke-width="2"/>
<path d="M255 447H373V565H327V518C327 504.193 315.807 493 302 493H255V447Z" fill="white" stroke="#D5D5D5" stroke-width="2"/>
<path d="M343.483 465.72V461.224H347.003C348.043 461.224 348.587 462.056 348.587 463.56C348.587 464.904 348.043 465.72 346.939 465.72H343.483ZM343.483 471V467.112H347.307C349.531 467.112 350.379 465.4 350.379 463.576C350.379 461.528 349.659 459.848 347.243 459.848H341.851V471H343.483ZM351.571 467.256H355.219V465.832H351.571V467.256ZM365.354 459.848H357.13V461.24H363.178C361.738 463.4 359.834 467.592 358.586 471H360.442C361.53 467.816 363.738 462.984 365.354 460.376V459.848Z" fill="#272727"/>
<path d="M485.203 553.203C477.473 560.932 464.941 560.932 457.212 553.203L433.414 529.405L461.405 501.414L485.203 525.212C492.932 532.941 492.932 545.473 485.203 553.203Z" fill="#D5D5D5" stroke="#D5D5D5" stroke-width="2"/>
<path d="M379 565V447H497V493H450C436.193 493 425 504.193 425 518V565H379Z" fill="white" stroke="#D5D5D5" stroke-width="2"/>
<path d="M389.483 465.72V461.224H393.003C394.043 461.224 394.587 462.056 394.587 463.56C394.587 464.904 394.043 465.72 392.939 465.72H389.483ZM389.483 471V467.112H393.307C395.531 467.112 396.379 465.4 396.379 463.576C396.379 461.528 395.659 459.848 393.243 459.848H387.851V471H389.483ZM397.571 467.256H401.219V465.832H397.571V467.256ZM406.858 469.88C405.034 469.88 404.49 469.32 404.49 467.848C404.49 466.312 405.146 465.736 406.858 465.736C408.57 465.736 409.226 466.312 409.226 467.848C409.226 469.32 408.682 469.88 406.858 469.88ZM406.858 464.44C405.354 464.44 404.714 463.912 404.714 462.6C404.714 461.384 405.258 460.936 406.858 460.936C408.458 460.936 409.002 461.384 409.002 462.6C409.002 463.912 408.378 464.44 406.858 464.44ZM406.858 471.224C409.69 471.224 410.938 470.392 410.938 467.96C410.938 466.36 410.458 465.144 408.346 465.048C410.346 464.872 410.682 463.752 410.682 462.36C410.682 460.488 409.722 459.576 406.858 459.576C403.994 459.576 403.05 460.488 403.05 462.36C403.05 463.752 403.386 464.872 405.386 465.048C403.258 465.144 402.778 466.36 402.778 467.96C402.778 470.392 404.042 471.224 406.858 471.224Z" fill="#272727"/>
<path d="M266.797 334.797C274.527 327.068 287.059 327.068 294.788 334.797L318.586 358.595L290.595 386.586L266.797 362.788C259.068 355.059 259.068 342.527 266.797 334.797Z" fill="#D5D5D5" stroke="#D5D5D5" stroke-width="2"/>
<path d="M373 323V441H255V395H302C315.807 395 327 383.807 327 370V323H373Z" fill="white" stroke="#D5D5D5" stroke-width="2"/>
<path d="M343.483 421.72V417.224H347.003C348.043 417.224 348.587 418.056 348.587 419.56C348.587 420.904 348.043 421.72 346.939 421.72H343.483ZM343.483 427V423.112H347.307C349.531 423.112 350.379 421.4 350.379 419.576C350.379 417.528 349.659 415.848 347.243 415.848H341.851V427H343.483ZM351.571 423.256H355.219V421.832H351.571V423.256ZM359.082 417.24H364.122V415.848H357.514V421.848C358.282 421.688 359.386 421.592 360.346 421.592C362.49 421.592 362.97 422.12 362.97 423.784C362.97 425.272 362.442 425.784 360.17 425.784C359.194 425.784 358.138 425.672 357.354 425.432L357.002 426.792C357.946 427.016 359.194 427.224 360.362 427.224C363.466 427.224 364.73 426.392 364.73 423.656C364.73 421.192 363.722 420.2 360.65 420.2C360.09 420.2 359.562 420.232 359.082 420.28V417.24Z" fill="#272727"/>
<path d="M457.212 334.797C464.941 327.068 477.473 327.068 485.203 334.797C492.932 342.527 492.932 355.059 485.203 362.788L461.405 386.586L433.414 358.595L457.212 334.797Z" fill="#D5D5D5" stroke="#D5D5D5" stroke-width="2"/>
<path d="M497 441H379V323H425V370C425 383.807 436.193 395 450 395H497V441Z" fill="white" stroke="#D5D5D5" stroke-width="2"/>
<path d="M389.483 421.72V417.224H393.003C394.043 417.224 394.587 418.056 394.587 419.56C394.587 420.904 394.043 421.72 392.939 421.72H389.483ZM389.483 427V423.112H393.307C395.531 423.112 396.379 421.4 396.379 419.576C396.379 417.528 395.659 415.848 393.243 415.848H387.851V427H389.483ZM397.571 423.256H401.219V421.832H397.571V423.256ZM410.81 416.024C409.962 415.768 408.81 415.576 407.834 415.576C404.41 415.576 402.842 416.792 402.842 421.352C402.842 425.912 403.978 427.224 407.082 427.224C410.01 427.224 411.178 426.392 411.178 423.656C411.178 421.192 410.154 420.2 407.066 420.2C406.378 420.2 405.338 420.28 404.57 420.424C404.714 417.608 405.658 417.064 407.85 417.064C408.778 417.064 409.77 417.224 410.41 417.464L410.81 416.024ZM404.554 421.816C405.29 421.672 406.25 421.592 407.114 421.592C409.002 421.592 409.466 422.2 409.466 423.784C409.466 425.24 409.034 425.784 407.082 425.784C405.402 425.784 404.602 425.144 404.554 421.816Z" fill="#272727"/>
<path d="M72.7884 263.203C65.0588 270.932 52.5267 270.932 44.7972 263.203C37.0676 255.473 37.0676 242.941 44.7972 235.212L68.5946 211.414L96.5858 239.405L72.7884 263.203Z" fill="#D5D5D5" stroke="#D5D5D5" stroke-width="2"/>
<path d="M33 157H151V275H105V228C105 214.193 93.8071 203 80 203H33V157Z" fill="white" stroke="#D5D5D5" stroke-width="2"/>
<path d="M121.483 175.72V171.224H125.003C126.043 171.224 126.587 172.056 126.587 173.56C126.587 174.904 126.043 175.72 124.939 175.72H121.483ZM121.483 181V177.112H125.307C127.531 177.112 128.379 175.4 128.379 173.576C128.379 171.528 127.659 169.848 125.243 169.848H119.851V181H121.483ZM129.571 177.256H133.219V175.832H129.571V177.256ZM140.122 175.048C142.106 174.872 142.49 173.768 142.49 172.36C142.49 170.456 141.466 169.576 138.346 169.576C137.066 169.576 135.786 169.8 134.858 170.008L135.21 171.4C135.946 171.16 137.194 171.016 138.154 171.016C140.25 171.016 140.794 171.464 140.794 172.632C140.794 173.928 140.122 174.408 138.474 174.408H137.066V175.768H138.49C140.218 175.768 140.954 176.344 140.954 177.8C140.954 179.256 140.41 179.784 138.09 179.784C137.114 179.784 135.914 179.672 135.098 179.432L134.762 180.792C135.738 181.016 137.146 181.224 138.298 181.224C141.37 181.224 142.714 180.408 142.714 177.96C142.714 176.36 142.234 175.144 140.122 175.048Z" fill="#272727"/>
<path d="M263.203 263.203C255.473 270.932 242.941 270.932 235.212 263.203L211.414 239.405L239.405 211.414L263.203 235.212C270.932 242.941 270.932 255.473 263.203 263.203Z" fill="#D5D5D5" stroke="#D5D5D5" stroke-width="2"/>
<path d="M157 275V157H275V203H228C214.193 203 203 214.193 203 228V275H157Z" fill="white" stroke="#D5D5D5" stroke-width="2"/>
<path d="M167.561 175.72V171.224H171.081C172.121 171.224 172.665 172.056 172.665 173.56C172.665 174.904 172.121 175.72 171.017 175.72H167.561ZM167.561 181V177.112H171.385C173.609 177.112 174.457 175.4 174.457 173.576C174.457 171.528 173.737 169.848 171.321 169.848H165.929V181H167.561ZM175.649 177.256H179.297V175.832H175.649V177.256ZM185.976 176.6H182.424C183.112 175.352 184.68 172.76 185.976 171.128V176.6ZM187.544 169.848H185.224C183.56 172.056 181.48 175.448 180.36 177.496V177.944H185.976V181H187.544V177.944H189.08V176.6H187.544V169.848Z" fill="#272727"/>
<path d="M44.7972 44.7972C52.5267 37.0676 65.0588 37.0676 72.7884 44.7972L96.5858 68.5946L68.5946 96.5858L44.7972 72.7884C37.0676 65.0588 37.0676 52.5267 44.7972 44.7972Z" fill="#D5D5D5" stroke="#D5D5D5" stroke-width="2"/>
<path d="M151 33V151H33V105H80C93.8071 105 105 93.8071 105 80V33H151Z" fill="white" stroke="#D5D5D5" stroke-width="2"/>
<path d="M121.483 131.72V127.224H125.003C126.043 127.224 126.587 128.056 126.587 129.56C126.587 130.904 126.043 131.72 124.939 131.72H121.483ZM121.483 137V133.112H125.307C127.531 133.112 128.379 131.4 128.379 129.576C128.379 127.528 127.659 125.848 125.243 125.848H119.851V137H121.483ZM129.571 133.256H133.219V131.832H129.571V133.256ZM140.122 137V125.416L135.53 127.416L136.01 128.728L138.506 127.592V137H140.122Z" fill="#272727"/>
<path d="M235.212 44.7972C242.941 37.0676 255.473 37.0676 263.203 44.7972C270.932 52.5267 270.932 65.0588 263.203 72.7884L239.405 96.5858L211.414 68.5946L235.212 44.7972Z" fill="#D5D5D5" stroke="#D5D5D5" stroke-width="2"/>
<path d="M275 151H157V33H203V80C203 93.8071 214.193 105 228 105H275V151Z" fill="white" stroke="#D5D5D5" stroke-width="2"/>
<path d="M167.483 131.72V127.224H171.003C172.043 127.224 172.587 128.056 172.587 129.56C172.587 130.904 172.043 131.72 170.939 131.72H167.483ZM167.483 137V133.112H171.307C173.531 133.112 174.379 131.4 174.379 129.576C174.379 127.528 173.659 125.848 171.243 125.848H165.851V137H167.483ZM175.571 133.256H179.219V131.832H175.571V133.256ZM182.906 135.608C187.77 132.152 188.618 131.064 188.618 128.776C188.618 126.36 187.306 125.576 184.554 125.576C183.418 125.576 182.186 125.784 181.242 126.056C181.354 126.536 181.482 127 181.61 127.48C182.202 127.24 183.514 127.048 184.458 127.048C186.202 127.048 186.906 127.448 186.906 128.888C186.906 130.68 186.538 131.176 180.73 135.704V137H188.554V135.608H182.906Z" fill="#272727"/>
<rect x="292" width="78" height="8" fill="#F7F7F7"/>
<rect x="158" width="78" height="8" fill="#F7F7F7"/>
<rect x="24" width="78" height="8" fill="#F7F7F7"/>
<rect x="28" y="590" width="96" height="8" fill="#F7F7F7"/>
<path d="M24 591.063L107.006 543L111 549.937L27.9936 598L24 591.063Z" fill="#D5D5D5"/>
</svg>
