<svg width="1160" height="692" viewBox="0 0 1160 692" fill="none" xmlns="http://www.w3.org/2000/svg">
<mask id="path-1-inside-1" fill="white">
<path fill-rule="evenodd" clip-rule="evenodd" d="M1160 0H0V480H576V692H1160V0Z"/>
</mask>
<path fill-rule="evenodd" clip-rule="evenodd" d="M1160 0H0V480H576V692H1160V0Z" fill="#F7F7F7"/>
<path d="M0 0V-8H-8V0H0ZM1160 0H1168V-8H1160V0ZM0 480H-8V488H0V480ZM576 480H584V472H576V480ZM576 692H568V700H576V692ZM1160 692V700H1168V692H1160ZM0 8H1160V-8H0V8ZM8 480V0H-8V480H8ZM0 488H576V472H0V488ZM568 480V692H584V480H568ZM1160 684H576V700H1160V684ZM1152 0V692H1168V0H1152Z" fill="#D5D5D5" mask="url(#path-1-inside-1)"/>
<g clip-path="url(#clip0)">
<path d="M1092.86 184.444C1100.78 176.519 1113.63 176.519 1121.56 184.444C1129.48 192.368 1129.48 205.217 1121.56 213.142L1097.41 237.293L1068.71 208.595L1092.86 184.444Z" fill="#D5D5D5" stroke="#D5D5D5"/>
<path d="M1067 149V267H1009V149H1067Z" fill="white" stroke="#D5D5D5" stroke-width="2"/>
<path d="M1018.23 161.848V173H1019.86V168.456H1021.69C1022.47 168.456 1023.72 169.912 1025.48 173H1027.51C1025.69 169.96 1024.47 168.36 1023.69 168.088C1026.02 168.056 1026.76 166.68 1026.76 165.096C1026.76 163.336 1026.04 161.848 1023.62 161.848H1018.23ZM1023.38 163.224C1024.38 163.224 1024.95 163.912 1024.95 165.224C1024.95 166.536 1024.26 167.08 1023.16 167.08H1019.86V163.224H1023.38ZM1028.44 169.256H1032.08V167.832H1028.44V169.256ZM1038.99 173V161.416L1034.4 163.416L1034.88 164.728L1037.37 163.592V173H1038.99ZM1046.08 163.24H1051.12V161.848H1044.51V167.848C1045.28 167.688 1046.39 167.592 1047.35 167.592C1049.49 167.592 1049.97 168.12 1049.97 169.784C1049.97 171.272 1049.44 171.784 1047.17 171.784C1046.19 171.784 1045.14 171.672 1044.35 171.432L1044 172.792C1044.95 173.016 1046.19 173.224 1047.36 173.224C1050.47 173.224 1051.73 172.392 1051.73 169.656C1051.73 167.192 1050.72 166.2 1047.65 166.2C1047.09 166.2 1046.56 166.232 1046.08 166.28V163.24Z" fill="#272727"/>
</g>
<path d="M67.1419 107.556C59.2171 115.481 46.3684 115.481 38.4436 107.556C30.5188 99.6316 30.5188 86.7829 38.4436 78.8581L62.5946 54.7071L91.2929 83.4054L67.1419 107.556Z" fill="#D5D5D5" stroke="#D5D5D5"/>
<rect x="93" y="143" width="118" height="58" transform="rotate(-90 93 143)" fill="white" stroke="#D5D5D5" stroke-width="2"/>
<path d="M119.366 117.848V129H120.998V124.456H122.822C123.606 124.456 124.854 125.912 126.615 129H128.646C126.822 125.96 125.606 124.36 124.822 124.088C127.158 124.056 127.894 122.68 127.894 121.096C127.894 119.336 127.174 117.848 124.758 117.848H119.366ZM124.518 119.224C125.51 119.224 126.086 119.912 126.086 121.224C126.086 122.536 125.398 123.08 124.294 123.08H120.998V119.224H124.518ZM129.571 125.256H133.219V123.832H129.571V125.256ZM140.122 129V117.416L135.53 119.416L136.01 120.728L138.506 119.592V129H140.122Z" fill="#272727"/>
<g clip-path="url(#clip1)">
<path d="M1092.86 320.444C1100.78 312.519 1113.63 312.519 1121.56 320.444C1129.48 328.368 1129.48 341.217 1121.56 349.142L1097.41 373.293L1068.71 344.595L1092.86 320.444Z" fill="#D5D5D5" stroke="#D5D5D5"/>
<path d="M1067 285V403H1009V285H1067Z" fill="white" stroke="#D5D5D5" stroke-width="2"/>
<path d="M1018.23 297.848V309H1019.86V304.456H1021.69C1022.47 304.456 1023.72 305.912 1025.48 309H1027.51C1025.69 305.96 1024.47 304.36 1023.69 304.088C1026.02 304.056 1026.76 302.68 1026.76 301.096C1026.76 299.336 1026.04 297.848 1023.62 297.848H1018.23ZM1023.38 299.224C1024.38 299.224 1024.95 299.912 1024.95 301.224C1024.95 302.536 1024.26 303.08 1023.16 303.08H1019.86V299.224H1023.38ZM1028.44 305.256H1032.08V303.832H1028.44V305.256ZM1038.99 309V297.416L1034.4 299.416L1034.88 300.728L1037.37 299.592V309H1038.99ZM1051.81 298.024C1050.96 297.768 1049.81 297.576 1048.83 297.576C1045.41 297.576 1043.84 298.792 1043.84 303.352C1043.84 307.912 1044.98 309.224 1048.08 309.224C1051.01 309.224 1052.18 308.392 1052.18 305.656C1052.18 303.192 1051.15 302.2 1048.07 302.2C1047.38 302.2 1046.34 302.28 1045.57 302.424C1045.71 299.608 1046.66 299.064 1048.85 299.064C1049.78 299.064 1050.77 299.224 1051.41 299.464L1051.81 298.024ZM1045.55 303.816C1046.29 303.672 1047.25 303.592 1048.11 303.592C1050 303.592 1050.47 304.2 1050.47 305.784C1050.47 307.24 1050.03 307.784 1048.08 307.784C1046.4 307.784 1045.6 307.144 1045.55 303.816Z" fill="#272727"/>
</g>
<g clip-path="url(#clip2)">
<path d="M984.444 30.4436C992.368 22.5188 1005.22 22.5188 1013.14 30.4436L1037.29 54.5946L1008.59 83.2929L984.444 59.1419C976.519 51.2171 976.519 38.3684 984.444 30.4436Z" fill="#D5D5D5" stroke="#D5D5D5"/>
<rect x="949" y="85" width="118" height="58" fill="white" stroke="#D5D5D5" stroke-width="2"/>
<path d="M958.31 117.848V129H959.942V124.456H961.766C962.55 124.456 963.798 125.912 965.558 129H967.59C965.766 125.96 964.55 124.36 963.766 124.088C966.102 124.056 966.838 122.68 966.838 121.096C966.838 119.336 966.118 117.848 963.702 117.848H958.31ZM963.462 119.224C964.454 119.224 965.03 119.912 965.03 121.224C965.03 122.536 964.342 123.08 963.238 123.08H959.942V119.224H963.462ZM968.515 125.256H972.163V123.832H968.515V125.256ZM979.065 129V117.416L974.473 119.416L974.953 120.728L977.449 119.592V129H979.065ZM988.976 124.6H985.424C986.112 123.352 987.68 120.76 988.976 119.128V124.6ZM990.544 117.848H988.224C986.56 120.056 984.48 123.448 983.36 125.496V125.944H988.976V129H990.544V125.944H992.08V124.6H990.544V117.848Z" fill="#272727"/>
</g>
<path d="M908.788 655.203C901.059 662.932 888.527 662.932 880.797 655.203C873.068 647.473 873.068 634.941 880.797 627.212L904.595 603.414L932.586 631.405L908.788 655.203Z" fill="#D5D5D5" stroke="#D5D5D5" stroke-width="2"/>
<path d="M869 549H987V667H941V620C941 606.193 929.807 595 916 595H869V549Z" fill="white" stroke="#D5D5D5" stroke-width="2"/>
<path d="M945.232 561.848V573H946.864V568.456H948.688C949.472 568.456 950.72 569.912 952.48 573H954.512C952.688 569.96 951.472 568.36 950.688 568.088C953.024 568.056 953.76 566.68 953.76 565.096C953.76 563.336 953.04 561.848 950.624 561.848H945.232ZM950.384 563.224C951.376 563.224 951.952 563.912 951.952 565.224C951.952 566.536 951.264 567.08 950.16 567.08H946.864V563.224H950.384ZM955.437 569.256H959.085V567.832H955.437V569.256ZM965.987 573V561.416L961.395 563.416L961.875 564.728L964.371 563.592V573H965.987ZM972.746 573H974.858C976.938 571.096 979.002 568.712 979.002 565.448C979.002 562.376 978.042 561.576 974.842 561.576C971.914 561.576 970.746 562.568 970.746 565.304C970.746 567.768 971.77 568.6 974.858 568.6C975.274 568.6 976.042 568.552 976.618 568.472C975.834 570.072 974.346 571.576 972.746 573ZM974.97 567.208C972.922 567.208 972.458 566.84 972.458 565.192C972.458 563.72 972.874 563 974.842 563C976.618 563 977.29 563.256 977.29 565.656C977.29 566.152 977.242 566.616 977.114 567.048C976.458 567.16 975.674 567.208 974.97 567.208Z" fill="#272727"/>
<path d="M1099.2 655.203C1091.47 662.932 1078.94 662.932 1071.21 655.203L1047.41 631.405L1075.41 603.414L1099.2 627.212C1106.93 634.941 1106.93 647.473 1099.2 655.203Z" fill="#D5D5D5" stroke="#D5D5D5" stroke-width="2"/>
<path d="M993 667V549H1111V595H1064C1050.19 595 1039 606.193 1039 620V667H993Z" fill="white" stroke="#D5D5D5" stroke-width="2"/>
<path d="M1002.23 561.848V573H1003.86V568.456H1005.69C1006.47 568.456 1007.72 569.912 1009.48 573H1011.51C1009.69 569.96 1008.47 568.36 1007.69 568.088C1010.02 568.056 1010.76 566.68 1010.76 565.096C1010.76 563.336 1010.04 561.848 1007.62 561.848H1002.23ZM1007.38 563.224C1008.38 563.224 1008.95 563.912 1008.95 565.224C1008.95 566.536 1008.26 567.08 1007.16 567.08H1003.86V563.224H1007.38ZM1012.44 569.256H1016.08V567.832H1012.44V569.256ZM1019.77 571.608C1024.64 568.152 1025.48 567.064 1025.48 564.776C1025.48 562.36 1024.17 561.576 1021.42 561.576C1020.28 561.576 1019.05 561.784 1018.11 562.056C1018.22 562.536 1018.35 563 1018.48 563.48C1019.07 563.24 1020.38 563.048 1021.32 563.048C1023.07 563.048 1023.77 563.448 1023.77 564.888C1023.77 566.68 1023.4 567.176 1017.6 571.704V573H1025.42V571.608H1019.77ZM1031.86 561.576C1029.14 561.576 1027.78 562.76 1027.78 567.272C1027.78 571.848 1029.14 573.224 1031.86 573.224C1034.59 573.224 1035.92 571.848 1035.92 567.272C1035.92 562.76 1034.58 561.576 1031.86 561.576ZM1031.84 571.768C1030.05 571.768 1029.43 570.904 1029.43 567.272C1029.43 563.528 1030.05 562.968 1031.84 562.968C1033.7 562.968 1034.29 563.528 1034.29 567.272C1034.29 570.904 1033.7 571.768 1031.84 571.768Z" fill="#272727"/>
<path d="M880.797 436.797C888.527 429.068 901.059 429.068 908.788 436.797L932.586 460.595L904.595 488.586L880.797 464.788C873.068 457.059 873.068 444.527 880.797 436.797Z" fill="#D5D5D5" stroke="#D5D5D5" stroke-width="2"/>
<path d="M987 425V543H869V497H916C929.807 497 941 485.807 941 472V425H987Z" fill="white" stroke="#D5D5D5" stroke-width="2"/>
<path d="M945.232 517.848V529H946.864V524.456H948.688C949.472 524.456 950.72 525.912 952.48 529H954.512C952.688 525.96 951.472 524.36 950.688 524.088C953.024 524.056 953.76 522.68 953.76 521.096C953.76 519.336 953.04 517.848 950.624 517.848H945.232ZM950.384 519.224C951.376 519.224 951.952 519.912 951.952 521.224C951.952 522.536 951.264 523.08 950.16 523.08H946.864V519.224H950.384ZM955.437 525.256H959.085V523.832H955.437V525.256ZM965.987 529V517.416L961.395 519.416L961.875 520.728L964.371 519.592V529H965.987ZM979.354 517.848H971.13V519.24H977.178C975.738 521.4 973.834 525.592 972.586 529H974.442C975.53 525.816 977.738 520.984 979.354 518.376V517.848Z" fill="#272727"/>
<path d="M1071.21 436.797C1078.94 429.068 1091.47 429.068 1099.2 436.797C1106.93 444.527 1106.93 457.059 1099.2 464.788L1075.41 488.586L1047.41 460.595L1071.21 436.797Z" fill="#D5D5D5" stroke="#D5D5D5" stroke-width="2"/>
<path d="M1111 543H993V425H1039V472C1039 485.807 1050.19 497 1064 497H1111V543Z" fill="white" stroke="#D5D5D5" stroke-width="2"/>
<path d="M1002.23 517.848V529H1003.86V524.456H1005.69C1006.47 524.456 1007.72 525.912 1009.48 529H1011.51C1009.69 525.96 1008.47 524.36 1007.69 524.088C1010.02 524.056 1010.76 522.68 1010.76 521.096C1010.76 519.336 1010.04 517.848 1007.62 517.848H1002.23ZM1007.38 519.224C1008.38 519.224 1008.95 519.912 1008.95 521.224C1008.95 522.536 1008.26 523.08 1007.16 523.08H1003.86V519.224H1007.38ZM1012.44 525.256H1016.08V523.832H1012.44V525.256ZM1022.99 529V517.416L1018.4 519.416L1018.88 520.728L1021.37 519.592V529H1022.99ZM1031.86 527.88C1030.03 527.88 1029.49 527.32 1029.49 525.848C1029.49 524.312 1030.15 523.736 1031.86 523.736C1033.57 523.736 1034.23 524.312 1034.23 525.848C1034.23 527.32 1033.68 527.88 1031.86 527.88ZM1031.86 522.44C1030.35 522.44 1029.71 521.912 1029.71 520.6C1029.71 519.384 1030.26 518.936 1031.86 518.936C1033.46 518.936 1034 519.384 1034 520.6C1034 521.912 1033.38 522.44 1031.86 522.44ZM1031.86 529.224C1034.69 529.224 1035.94 528.392 1035.94 525.96C1035.94 524.36 1035.46 523.144 1033.35 523.048C1035.35 522.872 1035.68 521.752 1035.68 520.36C1035.68 518.488 1034.72 517.576 1031.86 517.576C1028.99 517.576 1028.05 518.488 1028.05 520.36C1028.05 521.752 1028.39 522.872 1030.39 523.048C1028.26 523.144 1027.78 524.36 1027.78 525.96C1027.78 528.392 1029.04 529.224 1031.86 529.224Z" fill="#272727"/>
<path d="M648.788 279.203C641.059 286.932 628.527 286.932 620.797 279.203C613.068 271.473 613.068 258.941 620.797 251.212L644.595 227.414L672.586 255.405L648.788 279.203Z" fill="#D5D5D5" stroke="#D5D5D5" stroke-width="2"/>
<path d="M609 173H727V291H681V244C681 230.193 669.807 219 656 219H609V173Z" fill="white" stroke="#D5D5D5" stroke-width="2"/>
<path d="M685.232 185.848V197H686.864V192.456H688.688C689.472 192.456 690.72 193.912 692.48 197H694.512C692.688 193.96 691.472 192.36 690.688 192.088C693.024 192.056 693.76 190.68 693.76 189.096C693.76 187.336 693.04 185.848 690.624 185.848H685.232ZM690.384 187.224C691.376 187.224 691.952 187.912 691.952 189.224C691.952 190.536 691.264 191.08 690.16 191.08H686.864V187.224H690.384ZM695.437 193.256H699.085V191.832H695.437V193.256ZM705.987 197V185.416L701.395 187.416L701.875 188.728L704.371 187.592V197H705.987ZM712.906 195.608C717.77 192.152 718.618 191.064 718.618 188.776C718.618 186.36 717.306 185.576 714.554 185.576C713.418 185.576 712.186 185.784 711.242 186.056C711.354 186.536 711.482 187 711.61 187.48C712.202 187.24 713.514 187.048 714.458 187.048C716.202 187.048 716.906 187.448 716.906 188.888C716.906 190.68 716.538 191.176 710.73 195.704V197H718.554V195.608H712.906Z" fill="#272727"/>
<path d="M839.203 279.203C831.473 286.932 818.941 286.932 811.212 279.203L787.414 255.405L815.405 227.414L839.203 251.212C846.932 258.941 846.932 271.473 839.203 279.203Z" fill="#D5D5D5" stroke="#D5D5D5" stroke-width="2"/>
<path d="M733 291V173H851V219H804C790.193 219 779 230.193 779 244V291H733Z" fill="white" stroke="#D5D5D5" stroke-width="2"/>
<path d="M742.232 185.848V197H743.864V192.456H745.688C746.472 192.456 747.72 193.912 749.48 197H751.512C749.688 193.96 748.472 192.36 747.688 192.088C750.024 192.056 750.76 190.68 750.76 189.096C750.76 187.336 750.04 185.848 747.624 185.848H742.232ZM747.384 187.224C748.376 187.224 748.952 187.912 748.952 189.224C748.952 190.536 748.264 191.08 747.16 191.08H743.864V187.224H747.384ZM752.437 193.256H756.085V191.832H752.437V193.256ZM762.987 197V185.416L758.395 187.416L758.875 188.728L761.371 187.592V197H762.987ZM773.122 191.048C775.106 190.872 775.49 189.768 775.49 188.36C775.49 186.456 774.466 185.576 771.346 185.576C770.066 185.576 768.786 185.8 767.858 186.008L768.21 187.4C768.946 187.16 770.194 187.016 771.154 187.016C773.25 187.016 773.794 187.464 773.794 188.632C773.794 189.928 773.122 190.408 771.474 190.408H770.066V191.768H771.49C773.218 191.768 773.954 192.344 773.954 193.8C773.954 195.256 773.41 195.784 771.09 195.784C770.114 195.784 768.914 195.672 768.098 195.432L767.762 196.792C768.738 197.016 770.146 197.224 771.298 197.224C774.37 197.224 775.714 196.408 775.714 193.96C775.714 192.36 775.234 191.144 773.122 191.048Z" fill="#272727"/>
<path d="M620.797 60.7972C628.527 53.0676 641.059 53.0676 648.788 60.7972L672.586 84.5946L644.595 112.586L620.797 88.7884C613.068 81.0588 613.068 68.5267 620.797 60.7972Z" fill="#D5D5D5" stroke="#D5D5D5" stroke-width="2"/>
<path d="M727 49V167H609V121H656C669.807 121 681 109.807 681 96V49H727Z" fill="white" stroke="#D5D5D5" stroke-width="2"/>
<path d="M685.232 141.848V153H686.864V148.456H688.688C689.472 148.456 690.72 149.912 692.48 153H694.512C692.688 149.96 691.472 148.36 690.688 148.088C693.024 148.056 693.76 146.68 693.76 145.096C693.76 143.336 693.04 141.848 690.624 141.848H685.232ZM690.384 143.224C691.376 143.224 691.952 143.912 691.952 145.224C691.952 146.536 691.264 147.08 690.16 147.08H686.864V143.224H690.384ZM695.437 149.256H699.085V147.832H695.437V149.256ZM705.987 153V141.416L701.395 143.416L701.875 144.728L704.371 143.592V153H705.987ZM714.858 141.576C712.138 141.576 710.778 142.76 710.778 147.272C710.778 151.848 712.138 153.224 714.858 153.224C717.594 153.224 718.922 151.848 718.922 147.272C718.922 142.76 717.578 141.576 714.858 141.576ZM714.842 151.768C713.05 151.768 712.426 150.904 712.426 147.272C712.426 143.528 713.05 142.968 714.842 142.968C716.698 142.968 717.29 143.528 717.29 147.272C717.29 150.904 716.698 151.768 714.842 151.768Z" fill="#272727"/>
<path d="M811.212 60.7972C818.941 53.0676 831.473 53.0676 839.203 60.7972C846.932 68.5267 846.932 81.0588 839.203 88.7884L815.405 112.586L787.414 84.5946L811.212 60.7972Z" fill="#D5D5D5" stroke="#D5D5D5" stroke-width="2"/>
<path d="M851 167H733V49H779V96C779 109.807 790.193 121 804 121H851V167Z" fill="white" stroke="#D5D5D5" stroke-width="2"/>
<path d="M742.232 141.848V153H743.864V148.456H745.688C746.472 148.456 747.72 149.912 749.48 153H751.512C749.688 149.96 748.472 148.36 747.688 148.088C750.024 148.056 750.76 146.68 750.76 145.096C750.76 143.336 750.04 141.848 747.624 141.848H742.232ZM747.384 143.224C748.376 143.224 748.952 143.912 748.952 145.224C748.952 146.536 748.264 147.08 747.16 147.08H743.864V143.224H747.384ZM752.437 149.256H756.085V147.832H752.437V149.256ZM762.987 153V141.416L758.395 143.416L758.875 144.728L761.371 143.592V153H762.987ZM773.122 153V141.416L768.53 143.416L769.01 144.728L771.506 143.592V153H773.122Z" fill="#272727"/>
<path d="M348.788 263.203C341.059 270.932 328.527 270.932 320.797 263.203C313.068 255.473 313.068 242.941 320.797 235.212L344.595 211.414L372.586 239.405L348.788 263.203Z" fill="#D5D5D5" stroke="#D5D5D5" stroke-width="2"/>
<path d="M309 157H427V275H381V228C381 214.193 369.807 203 356 203H309V157Z" fill="white" stroke="#D5D5D5" stroke-width="2"/>
<path d="M395.445 169.848V181H397.077V176.456H398.901C399.685 176.456 400.933 177.912 402.693 181H404.725C402.901 177.96 401.685 176.36 400.901 176.088C403.237 176.056 403.973 174.68 403.973 173.096C403.973 171.336 403.253 169.848 400.837 169.848H395.445ZM400.597 171.224C401.589 171.224 402.165 171.912 402.165 173.224C402.165 174.536 401.477 175.08 400.373 175.08H397.077V171.224H400.597ZM405.649 177.256H409.297V175.832H405.649V177.256ZM415.976 176.6H412.424C413.112 175.352 414.68 172.76 415.976 171.128V176.6ZM417.544 169.848H415.224C413.56 172.056 411.48 175.448 410.36 177.496V177.944H415.976V181H417.544V177.944H419.08V176.6H417.544V169.848Z" fill="#272727"/>
<path d="M539.203 263.203C531.473 270.932 518.941 270.932 511.212 263.203L487.414 239.405L515.405 211.414L539.203 235.212C546.932 242.941 546.932 255.473 539.203 263.203Z" fill="#D5D5D5" stroke="#D5D5D5" stroke-width="2"/>
<path d="M433 275V157H551V203H504C490.193 203 479 214.193 479 228V275H433Z" fill="white" stroke="#D5D5D5" stroke-width="2"/>
<path d="M442.366 169.848V181H443.998V176.456H445.822C446.606 176.456 447.854 177.912 449.615 181H451.646C449.822 177.96 448.606 176.36 447.822 176.088C450.158 176.056 450.894 174.68 450.894 173.096C450.894 171.336 450.174 169.848 447.758 169.848H442.366ZM447.518 171.224C448.51 171.224 449.086 171.912 449.086 173.224C449.086 174.536 448.398 175.08 447.294 175.08H443.998V171.224H447.518ZM452.571 177.256H456.219V175.832H452.571V177.256ZM460.082 171.24H465.122V169.848H458.514V175.848C459.282 175.688 460.386 175.592 461.346 175.592C463.49 175.592 463.97 176.12 463.97 177.784C463.97 179.272 463.442 179.784 461.17 179.784C460.194 179.784 459.138 179.672 458.354 179.432L458.002 180.792C458.946 181.016 460.194 181.224 461.362 181.224C464.466 181.224 465.73 180.392 465.73 177.656C465.73 175.192 464.722 174.2 461.65 174.2C461.09 174.2 460.562 174.232 460.082 174.28V171.24Z" fill="#272727"/>
<path d="M320.797 44.7972C328.527 37.0676 341.059 37.0676 348.788 44.7972L372.586 68.5946L344.595 96.5858L320.797 72.7884C313.068 65.0588 313.068 52.5267 320.797 44.7972Z" fill="#D5D5D5" stroke="#D5D5D5" stroke-width="2"/>
<path d="M427 33V151H309V105H356C369.807 105 381 93.8071 381 80V33H427Z" fill="white" stroke="#D5D5D5" stroke-width="2"/>
<path d="M395.366 125.848V137H396.998V132.456H398.822C399.606 132.456 400.854 133.912 402.615 137H404.646C402.822 133.96 401.606 132.36 400.822 132.088C403.158 132.056 403.894 130.68 403.894 129.096C403.894 127.336 403.174 125.848 400.758 125.848H395.366ZM400.518 127.224C401.51 127.224 402.086 127.912 402.086 129.224C402.086 130.536 401.398 131.08 400.294 131.08H396.998V127.224H400.518ZM405.571 133.256H409.219V131.832H405.571V133.256ZM412.906 135.608C417.77 132.152 418.618 131.064 418.618 128.776C418.618 126.36 417.306 125.576 414.554 125.576C413.418 125.576 412.186 125.784 411.242 126.056C411.354 126.536 411.482 127 411.61 127.48C412.202 127.24 413.514 127.048 414.458 127.048C416.202 127.048 416.906 127.448 416.906 128.888C416.906 130.68 416.538 131.176 410.73 135.704V137H418.554V135.608H412.906Z" fill="#272727"/>
<path d="M511.212 44.7972C518.941 37.0676 531.473 37.0676 539.203 44.7972C546.932 52.5267 546.932 65.0588 539.203 72.7884L515.405 96.5858L487.414 68.5946L511.212 44.7972Z" fill="#D5D5D5" stroke="#D5D5D5" stroke-width="2"/>
<path d="M551 151H433V33H479V80C479 93.8071 490.193 105 504 105H551V151Z" fill="white" stroke="#D5D5D5" stroke-width="2"/>
<path d="M442.366 125.848V137H443.998V132.456H445.822C446.606 132.456 447.854 133.912 449.615 137H451.646C449.822 133.96 448.606 132.36 447.822 132.088C450.158 132.056 450.894 130.68 450.894 129.096C450.894 127.336 450.174 125.848 447.758 125.848H442.366ZM447.518 127.224C448.51 127.224 449.086 127.912 449.086 129.224C449.086 130.536 448.398 131.08 447.294 131.08H443.998V127.224H447.518ZM452.571 133.256H456.219V131.832H452.571V133.256ZM463.122 131.048C465.106 130.872 465.49 129.768 465.49 128.36C465.49 126.456 464.466 125.576 461.346 125.576C460.066 125.576 458.786 125.8 457.858 126.008L458.21 127.4C458.946 127.16 460.194 127.016 461.154 127.016C463.25 127.016 463.794 127.464 463.794 128.632C463.794 129.928 463.122 130.408 461.474 130.408H460.066V131.768H461.49C463.218 131.768 463.954 132.344 463.954 133.8C463.954 135.256 463.41 135.784 461.09 135.784C460.114 135.784 458.914 135.672 458.098 135.432L457.762 136.792C458.738 137.016 460.146 137.224 461.298 137.224C464.37 137.224 465.714 136.408 465.714 133.96C465.714 132.36 465.234 131.144 463.122 131.048Z" fill="#272727"/>
<path d="M72.7884 435.203C65.0588 442.932 52.5267 442.932 44.7972 435.203C37.0676 427.473 37.0676 414.941 44.7972 407.212L68.5946 383.414L96.5858 411.405L72.7884 435.203Z" fill="#D5D5D5" stroke="#D5D5D5" stroke-width="2"/>
<path d="M33 329H151V447H105V400C105 386.193 93.8071 375 80 375H33V329Z" fill="white" stroke="#D5D5D5" stroke-width="2"/>
<path d="M119.366 341.848V353H120.998V348.456H122.822C123.606 348.456 124.854 349.912 126.615 353H128.646C126.822 349.96 125.606 348.36 124.822 348.088C127.158 348.056 127.894 346.68 127.894 345.096C127.894 343.336 127.174 341.848 124.758 341.848H119.366ZM124.518 343.224C125.51 343.224 126.086 343.912 126.086 345.224C126.086 346.536 125.398 347.08 124.294 347.08H120.998V343.224H124.518ZM129.571 349.256H133.219V347.832H129.571V349.256ZM138.858 351.88C137.034 351.88 136.49 351.32 136.49 349.848C136.49 348.312 137.146 347.736 138.858 347.736C140.57 347.736 141.226 348.312 141.226 349.848C141.226 351.32 140.682 351.88 138.858 351.88ZM138.858 346.44C137.354 346.44 136.714 345.912 136.714 344.6C136.714 343.384 137.258 342.936 138.858 342.936C140.458 342.936 141.002 343.384 141.002 344.6C141.002 345.912 140.378 346.44 138.858 346.44ZM138.858 353.224C141.69 353.224 142.938 352.392 142.938 349.96C142.938 348.36 142.458 347.144 140.346 347.048C142.346 346.872 142.682 345.752 142.682 344.36C142.682 342.488 141.722 341.576 138.858 341.576C135.994 341.576 135.05 342.488 135.05 344.36C135.05 345.752 135.386 346.872 137.386 347.048C135.258 347.144 134.778 348.36 134.778 349.96C134.778 352.392 136.042 353.224 138.858 353.224Z" fill="#272727"/>
<path d="M263.203 435.203C255.473 442.932 242.941 442.932 235.212 435.203L211.414 411.405L239.405 383.414L263.203 407.212C270.932 414.941 270.932 427.473 263.203 435.203Z" fill="#D5D5D5" stroke="#D5D5D5" stroke-width="2"/>
<path d="M157 447V329H275V375H228C214.193 375 203 386.193 203 400V447H157Z" fill="white" stroke="#D5D5D5" stroke-width="2"/>
<path d="M166.366 341.848V353H167.998V348.456H169.822C170.606 348.456 171.854 349.912 173.615 353H175.646C173.822 349.96 172.606 348.36 171.822 348.088C174.158 348.056 174.894 346.68 174.894 345.096C174.894 343.336 174.174 341.848 171.758 341.848H166.366ZM171.518 343.224C172.51 343.224 173.086 343.912 173.086 345.224C173.086 346.536 172.398 347.08 171.294 347.08H167.998V343.224H171.518ZM176.571 349.256H180.219V347.832H176.571V349.256ZM183.746 353H185.858C187.938 351.096 190.002 348.712 190.002 345.448C190.002 342.376 189.042 341.576 185.842 341.576C182.914 341.576 181.746 342.568 181.746 345.304C181.746 347.768 182.77 348.6 185.858 348.6C186.274 348.6 187.042 348.552 187.618 348.472C186.834 350.072 185.346 351.576 183.746 353ZM185.97 347.208C183.922 347.208 183.458 346.84 183.458 345.192C183.458 343.72 183.874 343 185.842 343C187.618 343 188.29 343.256 188.29 345.656C188.29 346.152 188.242 346.616 188.114 347.048C187.458 347.16 186.674 347.208 185.97 347.208Z" fill="#272727"/>
<path d="M44.7972 216.797C52.5267 209.068 65.0588 209.068 72.7884 216.797L96.5858 240.595L68.5946 268.586L44.7972 244.788C37.0676 237.059 37.0676 224.527 44.7972 216.797Z" fill="#D5D5D5" stroke="#D5D5D5" stroke-width="2"/>
<path d="M151 205V323H33V277H80C93.8071 277 105 265.807 105 252V205H151Z" fill="white" stroke="#D5D5D5" stroke-width="2"/>
<path d="M119.366 297.848V309H120.998V304.456H122.822C123.606 304.456 124.854 305.912 126.615 309H128.646C126.822 305.96 125.606 304.36 124.822 304.088C127.158 304.056 127.894 302.68 127.894 301.096C127.894 299.336 127.174 297.848 124.758 297.848H119.366ZM124.518 299.224C125.51 299.224 126.086 299.912 126.086 301.224C126.086 302.536 125.398 303.08 124.294 303.08H120.998V299.224H124.518ZM129.571 305.256H133.219V303.832H129.571V305.256ZM142.81 298.024C141.962 297.768 140.81 297.576 139.834 297.576C136.41 297.576 134.842 298.792 134.842 303.352C134.842 307.912 135.978 309.224 139.082 309.224C142.01 309.224 143.178 308.392 143.178 305.656C143.178 303.192 142.154 302.2 139.066 302.2C138.378 302.2 137.338 302.28 136.57 302.424C136.714 299.608 137.658 299.064 139.85 299.064C140.778 299.064 141.77 299.224 142.41 299.464L142.81 298.024ZM136.554 303.816C137.29 303.672 138.25 303.592 139.114 303.592C141.002 303.592 141.466 304.2 141.466 305.784C141.466 307.24 141.034 307.784 139.082 307.784C137.402 307.784 136.602 307.144 136.554 303.816Z" fill="#272727"/>
<path d="M235.212 216.797C242.941 209.068 255.473 209.068 263.203 216.797C270.932 224.527 270.932 237.059 263.203 244.788L239.405 268.586L211.414 240.595L235.212 216.797Z" fill="#D5D5D5" stroke="#D5D5D5" stroke-width="2"/>
<path d="M275 323H157V205H203V252C203 265.807 214.193 277 228 277H275V323Z" fill="white" stroke="#D5D5D5" stroke-width="2"/>
<path d="M166.366 297.848V309H167.998V304.456H169.822C170.606 304.456 171.854 305.912 173.615 309H175.646C173.822 305.96 172.606 304.36 171.822 304.088C174.158 304.056 174.894 302.68 174.894 301.096C174.894 299.336 174.174 297.848 171.758 297.848H166.366ZM171.518 299.224C172.51 299.224 173.086 299.912 173.086 301.224C173.086 302.536 172.398 303.08 171.294 303.08H167.998V299.224H171.518ZM176.571 305.256H180.219V303.832H176.571V305.256ZM190.354 297.848H182.13V299.24H188.178C186.738 301.4 184.834 305.592 183.586 309H185.442C186.53 305.816 188.738 300.984 190.354 298.376V297.848Z" fill="#272727"/>
<rect x="576" y="416" width="8" height="64" fill="#D5D5D5"/>
<rect x="576" width="8" height="324" fill="#D5D5D5"/>
<path d="M1152 585V507H1160V585H1152Z" fill="#F7F7F7"/>
<rect x="1034" width="78" height="8" fill="#F7F7F7"/>
<rect x="900" width="78" height="8" fill="#F7F7F7"/>
<rect x="632" width="78" height="8" fill="#F7F7F7"/>
<rect x="450" width="78" height="8" fill="#F7F7F7"/>
<rect x="316" width="78" height="8" fill="#F7F7F7"/>
<rect x="182" width="78" height="8" fill="#F7F7F7"/>
<rect x="48" width="78" height="8" fill="#F7F7F7"/>
<rect x="647" y="684" width="96" height="8" fill="#F7F7F7"/>
<path d="M643 685.063L726.006 637L730 643.937L646.994 692L643 685.063Z" fill="#D5D5D5"/>
<defs>
<clipPath id="clip0">
<rect width="120" height="120" fill="white" transform="translate(1008 148)"/>
</clipPath>
<clipPath id="clip1">
<rect width="120" height="120" fill="white" transform="translate(1008 284)"/>
</clipPath>
<clipPath id="clip2">
<rect width="120" height="120" fill="white" transform="translate(948 24)"/>
</clipPath>
</defs>
</svg>
