<svg width="600" height="692" viewBox="0 0 600 692" fill="none" xmlns="http://www.w3.org/2000/svg">
<mask id="path-1-inside-1" fill="white">
<path fill-rule="evenodd" clip-rule="evenodd" d="M527 0H0V692H600V360H500V122H527V0ZM548 408H500V456H548V408Z"/>
</mask>
<path fill-rule="evenodd" clip-rule="evenodd" d="M527 0H0V692H600V360H500V122H527V0ZM548 408H500V456H548V408Z" fill="#F7F7F7"/>
<path d="M0 0V-8H-8V0H0ZM527 0H535V-8H527V0ZM0 692H-8V700H0V692ZM600 692V700H608V692H600ZM600 360H608V352H600V360ZM500 360H492V368H500V360ZM500 122V114H492V122H500ZM527 122V130H535V122H527ZM500 408V400H492V408H500ZM548 408H556V400H548V408ZM500 456H492V464H500V456ZM548 456V464H556V456H548ZM0 8H527V-8H0V8ZM8 692V0H-8V692H8ZM600 684H0V700H600V684ZM592 360V692H608V360H592ZM500 368H600V352H500V368ZM492 122V360H508V122H492ZM527 114H500V130H527V114ZM519 0V122H535V0H519ZM500 416H548V400H500V416ZM508 456V408H492V456H508ZM548 448H500V464H548V448ZM540 408V456H556V408H540Z" fill="#D5D5D5" mask="url(#path-1-inside-1)"/>
<g clip-path="url(#clip0)">
<path d="M432.858 408.444C440.783 400.519 453.632 400.519 461.556 408.444C469.481 416.368 469.481 429.217 461.556 437.142L437.405 461.293L408.707 432.595L432.858 408.444Z" fill="#D5D5D5" stroke="#D5D5D5"/>
<path d="M407 373V491H349V373H407Z" fill="white" stroke="#D5D5D5" stroke-width="2"/>
<path d="M362.342 385.576C359.414 385.576 357.718 386.52 357.718 389.032C357.718 391.08 358.902 391.832 361.478 392.04C363.654 392.232 364.166 392.936 364.166 393.912C364.166 395.336 363.078 395.736 361.206 395.736C360.214 395.736 358.998 395.56 358.31 395.336L357.91 396.744C358.79 397.032 360.118 397.224 361.238 397.224C364.198 397.224 365.894 396.328 365.894 393.832C365.894 391.752 364.726 390.792 362.102 390.552C359.99 390.376 359.462 389.864 359.462 388.888C359.462 387.48 360.47 387.064 362.342 387.064C363.366 387.064 364.614 387.24 365.19 387.464L365.574 386.04C364.71 385.768 363.43 385.576 362.342 385.576ZM367.437 393.256H371.085V391.832H367.437V393.256ZM377.987 397V385.416L373.395 387.416L373.875 388.728L376.371 387.592V397H377.987ZM388.122 397V385.416L383.53 387.416L384.01 388.728L386.506 387.592V397H388.122Z" fill="#272727"/>
</g>
<g clip-path="url(#clip1)">
<path d="M432.858 222.444C440.783 214.519 453.632 214.519 461.556 222.444C469.481 230.368 469.481 243.217 461.556 251.142L437.405 275.293L408.707 246.595L432.858 222.444Z" fill="#D5D5D5" stroke="#D5D5D5"/>
<path d="M407 187V305H349V187H407Z" fill="white" stroke="#D5D5D5" stroke-width="2"/>
<path d="M362.476 199.576C359.548 199.576 357.852 200.52 357.852 203.032C357.852 205.08 359.036 205.832 361.612 206.04C363.788 206.232 364.3 206.936 364.3 207.912C364.3 209.336 363.212 209.736 361.34 209.736C360.348 209.736 359.132 209.56 358.444 209.336L358.044 210.744C358.924 211.032 360.252 211.224 361.372 211.224C364.332 211.224 366.028 210.328 366.028 207.832C366.028 205.752 364.86 204.792 362.236 204.552C360.124 204.376 359.596 203.864 359.596 202.888C359.596 201.48 360.604 201.064 362.476 201.064C363.5 201.064 364.748 201.24 365.324 201.464L365.708 200.04C364.844 199.768 363.564 199.576 362.476 199.576ZM367.571 207.256H371.219V205.832H367.571V207.256ZM380.81 200.024C379.962 199.768 378.81 199.576 377.834 199.576C374.41 199.576 372.842 200.792 372.842 205.352C372.842 209.912 373.978 211.224 377.082 211.224C380.01 211.224 381.178 210.392 381.178 207.656C381.178 205.192 380.154 204.2 377.066 204.2C376.378 204.2 375.338 204.28 374.57 204.424C374.714 201.608 375.658 201.064 377.85 201.064C378.778 201.064 379.77 201.224 380.41 201.464L380.81 200.024ZM374.554 205.816C375.29 205.672 376.25 205.592 377.114 205.592C379.002 205.592 379.466 206.2 379.466 207.784C379.466 209.24 379.034 209.784 377.082 209.784C375.402 209.784 374.602 209.144 374.554 205.816Z" fill="#272727"/>
</g>
<g clip-path="url(#clip2)">
<path d="M384.444 68.4436C392.368 60.5188 405.217 60.5188 413.142 68.4436L437.293 92.5946L408.595 121.293L384.444 97.1419C376.519 89.2171 376.519 76.3684 384.444 68.4436Z" fill="#D5D5D5" stroke="#D5D5D5"/>
<rect x="349" y="123" width="118" height="58" fill="white" stroke="#D5D5D5" stroke-width="2"/>
<path d="M362.476 155.576C359.548 155.576 357.852 156.52 357.852 159.032C357.852 161.08 359.036 161.832 361.612 162.04C363.788 162.232 364.3 162.936 364.3 163.912C364.3 165.336 363.212 165.736 361.34 165.736C360.348 165.736 359.132 165.56 358.444 165.336L358.044 166.744C358.924 167.032 360.252 167.224 361.372 167.224C364.332 167.224 366.028 166.328 366.028 163.832C366.028 161.752 364.86 160.792 362.236 160.552C360.124 160.376 359.596 159.864 359.596 158.888C359.596 157.48 360.604 157.064 362.476 157.064C363.5 157.064 364.748 157.24 365.324 157.464L365.708 156.04C364.844 155.768 363.564 155.576 362.476 155.576ZM367.571 163.256H371.219V161.832H367.571V163.256ZM375.082 157.24H380.122V155.848H373.514V161.848C374.282 161.688 375.386 161.592 376.346 161.592C378.49 161.592 378.97 162.12 378.97 163.784C378.97 165.272 378.442 165.784 376.17 165.784C375.194 165.784 374.138 165.672 373.354 165.432L373.002 166.792C373.946 167.016 375.194 167.224 376.362 167.224C379.466 167.224 380.73 166.392 380.73 163.656C380.73 161.192 379.722 160.2 376.65 160.2C376.09 160.2 375.562 160.232 375.082 160.28V157.24Z" fill="#272727"/>
</g>
<path d="M72.7884 617.203C65.0588 624.932 52.5267 624.932 44.7972 617.203C37.0676 609.473 37.0676 596.941 44.7972 589.212L68.5946 565.414L96.5858 593.405L72.7884 617.203Z" fill="#D5D5D5" stroke="#D5D5D5" stroke-width="2"/>
<path d="M33 511H151V629H105V582C105 568.193 93.8071 557 80 557H33V511Z" fill="white" stroke="#D5D5D5" stroke-width="2"/>
<path d="M124.476 523.576C121.548 523.576 119.852 524.52 119.852 527.032C119.852 529.08 121.036 529.832 123.612 530.04C125.788 530.232 126.3 530.936 126.3 531.912C126.3 533.336 125.212 533.736 123.34 533.736C122.348 533.736 121.132 533.56 120.444 533.336L120.044 534.744C120.924 535.032 122.252 535.224 123.372 535.224C126.332 535.224 128.028 534.328 128.028 531.832C128.028 529.752 126.86 528.792 124.236 528.552C122.124 528.376 121.596 527.864 121.596 526.888C121.596 525.48 122.604 525.064 124.476 525.064C125.5 525.064 126.748 525.24 127.324 525.464L127.708 524.04C126.844 523.768 125.564 523.576 124.476 523.576ZM129.571 531.256H133.219V529.832H129.571V531.256ZM136.746 535H138.858C140.938 533.096 143.002 530.712 143.002 527.448C143.002 524.376 142.042 523.576 138.842 523.576C135.914 523.576 134.746 524.568 134.746 527.304C134.746 529.768 135.77 530.6 138.858 530.6C139.274 530.6 140.042 530.552 140.618 530.472C139.834 532.072 138.346 533.576 136.746 535ZM138.97 529.208C136.922 529.208 136.458 528.84 136.458 527.192C136.458 525.72 136.874 525 138.842 525C140.618 525 141.29 525.256 141.29 527.656C141.29 528.152 141.242 528.616 141.114 529.048C140.458 529.16 139.674 529.208 138.97 529.208Z" fill="#272727"/>
<path d="M263.203 617.203C255.473 624.932 242.941 624.932 235.212 617.203L211.414 593.405L239.405 565.414L263.203 589.212C270.932 596.941 270.932 609.473 263.203 617.203Z" fill="#D5D5D5" stroke="#D5D5D5" stroke-width="2"/>
<path d="M157 629V511H275V557H228C214.193 557 203 568.193 203 582V629H157Z" fill="white" stroke="#D5D5D5" stroke-width="2"/>
<path d="M170.342 523.576C167.414 523.576 165.718 524.52 165.718 527.032C165.718 529.08 166.902 529.832 169.478 530.04C171.654 530.232 172.166 530.936 172.166 531.912C172.166 533.336 171.078 533.736 169.206 533.736C168.214 533.736 166.998 533.56 166.31 533.336L165.91 534.744C166.79 535.032 168.118 535.224 169.238 535.224C172.198 535.224 173.894 534.328 173.894 531.832C173.894 529.752 172.726 528.792 170.102 528.552C167.99 528.376 167.462 527.864 167.462 526.888C167.462 525.48 168.47 525.064 170.342 525.064C171.366 525.064 172.614 525.24 173.19 525.464L173.574 524.04C172.71 523.768 171.43 523.576 170.342 523.576ZM175.437 531.256H179.085V529.832H175.437V531.256ZM185.987 535V523.416L181.395 525.416L181.875 526.728L184.371 525.592V535H185.987ZM194.858 523.576C192.138 523.576 190.778 524.76 190.778 529.272C190.778 533.848 192.138 535.224 194.858 535.224C197.594 535.224 198.922 533.848 198.922 529.272C198.922 524.76 197.578 523.576 194.858 523.576ZM194.842 533.768C193.05 533.768 192.426 532.904 192.426 529.272C192.426 525.528 193.05 524.968 194.842 524.968C196.698 524.968 197.29 525.528 197.29 529.272C197.29 532.904 196.698 533.768 194.842 533.768Z" fill="#272727"/>
<path d="M44.7972 398.797C52.5267 391.068 65.0588 391.068 72.7884 398.797L96.5858 422.595L68.5946 450.586L44.7972 426.788C37.0676 419.059 37.0676 406.527 44.7972 398.797Z" fill="#D5D5D5" stroke="#D5D5D5" stroke-width="2"/>
<path d="M151 387V505H33V459H80C93.8071 459 105 447.807 105 434V387H151Z" fill="white" stroke="#D5D5D5" stroke-width="2"/>
<path d="M124.476 479.576C121.548 479.576 119.852 480.52 119.852 483.032C119.852 485.08 121.036 485.832 123.612 486.04C125.788 486.232 126.3 486.936 126.3 487.912C126.3 489.336 125.212 489.736 123.34 489.736C122.348 489.736 121.132 489.56 120.444 489.336L120.044 490.744C120.924 491.032 122.252 491.224 123.372 491.224C126.332 491.224 128.028 490.328 128.028 487.832C128.028 485.752 126.86 484.792 124.236 484.552C122.124 484.376 121.596 483.864 121.596 482.888C121.596 481.48 122.604 481.064 124.476 481.064C125.5 481.064 126.748 481.24 127.324 481.464L127.708 480.04C126.844 479.768 125.564 479.576 124.476 479.576ZM129.571 487.256H133.219V485.832H129.571V487.256ZM143.354 479.848H135.13V481.24H141.178C139.738 483.4 137.834 487.592 136.586 491H138.442C139.53 487.816 141.738 482.984 143.354 480.376V479.848Z" fill="#272727"/>
<path d="M235.212 398.797C242.941 391.068 255.473 391.068 263.203 398.797C270.932 406.527 270.932 419.059 263.203 426.788L239.405 450.586L211.414 422.595L235.212 398.797Z" fill="#D5D5D5" stroke="#D5D5D5" stroke-width="2"/>
<path d="M275 505H157V387H203V434C203 447.807 214.193 459 228 459H275V505Z" fill="white" stroke="#D5D5D5" stroke-width="2"/>
<path d="M170.476 479.576C167.548 479.576 165.852 480.52 165.852 483.032C165.852 485.08 167.036 485.832 169.612 486.04C171.788 486.232 172.3 486.936 172.3 487.912C172.3 489.336 171.212 489.736 169.34 489.736C168.348 489.736 167.132 489.56 166.444 489.336L166.044 490.744C166.924 491.032 168.252 491.224 169.372 491.224C172.332 491.224 174.028 490.328 174.028 487.832C174.028 485.752 172.86 484.792 170.236 484.552C168.124 484.376 167.596 483.864 167.596 482.888C167.596 481.48 168.604 481.064 170.476 481.064C171.5 481.064 172.748 481.24 173.324 481.464L173.708 480.04C172.844 479.768 171.564 479.576 170.476 479.576ZM175.571 487.256H179.219V485.832H175.571V487.256ZM184.858 489.88C183.034 489.88 182.49 489.32 182.49 487.848C182.49 486.312 183.146 485.736 184.858 485.736C186.57 485.736 187.226 486.312 187.226 487.848C187.226 489.32 186.682 489.88 184.858 489.88ZM184.858 484.44C183.354 484.44 182.714 483.912 182.714 482.6C182.714 481.384 183.258 480.936 184.858 480.936C186.458 480.936 187.002 481.384 187.002 482.6C187.002 483.912 186.378 484.44 184.858 484.44ZM184.858 491.224C187.69 491.224 188.938 490.392 188.938 487.96C188.938 486.36 188.458 485.144 186.346 485.048C188.346 484.872 188.682 483.752 188.682 482.36C188.682 480.488 187.722 479.576 184.858 479.576C181.994 479.576 181.05 480.488 181.05 482.36C181.05 483.752 181.386 484.872 183.386 485.048C181.258 485.144 180.778 486.36 180.778 487.96C180.778 490.392 182.042 491.224 184.858 491.224Z" fill="#272727"/>
<path d="M72.7884 293.203C65.0588 300.932 52.5267 300.932 44.7972 293.203C37.0676 285.473 37.0676 272.941 44.7972 265.212L68.5946 241.414L96.5858 269.405L72.7884 293.203Z" fill="#D5D5D5" stroke="#D5D5D5" stroke-width="2"/>
<path d="M33 187H151V305H105V258C105 244.193 93.8071 233 80 233H33V187Z" fill="white" stroke="#D5D5D5" stroke-width="2"/>
<path d="M124.476 199.576C121.548 199.576 119.852 200.52 119.852 203.032C119.852 205.08 121.036 205.832 123.612 206.04C125.788 206.232 126.3 206.936 126.3 207.912C126.3 209.336 125.212 209.736 123.34 209.736C122.348 209.736 121.132 209.56 120.444 209.336L120.044 210.744C120.924 211.032 122.252 211.224 123.372 211.224C126.332 211.224 128.028 210.328 128.028 207.832C128.028 205.752 126.86 204.792 124.236 204.552C122.124 204.376 121.596 203.864 121.596 202.888C121.596 201.48 122.604 201.064 124.476 201.064C125.5 201.064 126.748 201.24 127.324 201.464L127.708 200.04C126.844 199.768 125.564 199.576 124.476 199.576ZM129.571 207.256H133.219V205.832H129.571V207.256ZM140.122 205.048C142.106 204.872 142.49 203.768 142.49 202.36C142.49 200.456 141.466 199.576 138.346 199.576C137.066 199.576 135.786 199.8 134.858 200.008L135.21 201.4C135.946 201.16 137.194 201.016 138.154 201.016C140.25 201.016 140.794 201.464 140.794 202.632C140.794 203.928 140.122 204.408 138.474 204.408H137.066V205.768H138.49C140.218 205.768 140.954 206.344 140.954 207.8C140.954 209.256 140.41 209.784 138.09 209.784C137.114 209.784 135.914 209.672 135.098 209.432L134.762 210.792C135.738 211.016 137.146 211.224 138.298 211.224C141.37 211.224 142.714 210.408 142.714 207.96C142.714 206.36 142.234 205.144 140.122 205.048Z" fill="#272727"/>
<path d="M263.203 293.203C255.473 300.932 242.941 300.932 235.212 293.203L211.414 269.405L239.405 241.414L263.203 265.212C270.932 272.941 270.932 285.473 263.203 293.203Z" fill="#D5D5D5" stroke="#D5D5D5" stroke-width="2"/>
<path d="M157 305V187H275V233H228C214.193 233 203 244.193 203 258V305H157Z" fill="white" stroke="#D5D5D5" stroke-width="2"/>
<path d="M169.554 199.576C166.626 199.576 164.93 200.52 164.93 203.032C164.93 205.08 166.114 205.832 168.69 206.04C170.866 206.232 171.378 206.936 171.378 207.912C171.378 209.336 170.29 209.736 168.418 209.736C167.426 209.736 166.21 209.56 165.522 209.336L165.122 210.744C166.002 211.032 167.33 211.224 168.45 211.224C171.41 211.224 173.106 210.328 173.106 207.832C173.106 205.752 171.938 204.792 169.314 204.552C167.202 204.376 166.674 203.864 166.674 202.888C166.674 201.48 167.682 201.064 169.554 201.064C170.578 201.064 171.826 201.24 172.402 201.464L172.786 200.04C171.922 199.768 170.642 199.576 169.554 199.576ZM174.649 207.256H178.297V205.832H174.649V207.256ZM184.976 206.6H181.424C182.112 205.352 183.68 202.76 184.976 201.128V206.6ZM186.544 199.848H184.224C182.56 202.056 180.48 205.448 179.36 207.496V207.944H184.976V211H186.544V207.944H188.08V206.6H186.544V199.848Z" fill="#272727"/>
<path d="M44.7972 74.7972C52.5267 67.0676 65.0588 67.0676 72.7884 74.7972L96.5858 98.5946L68.5946 126.586L44.7972 102.788C37.0676 95.0588 37.0676 82.5267 44.7972 74.7972Z" fill="#D5D5D5" stroke="#D5D5D5" stroke-width="2"/>
<path d="M151 63V181H33V135H80C93.8071 135 105 123.807 105 110V63H151Z" fill="white" stroke="#D5D5D5" stroke-width="2"/>
<path d="M124.476 155.576C121.548 155.576 119.852 156.52 119.852 159.032C119.852 161.08 121.036 161.832 123.612 162.04C125.788 162.232 126.3 162.936 126.3 163.912C126.3 165.336 125.212 165.736 123.34 165.736C122.348 165.736 121.132 165.56 120.444 165.336L120.044 166.744C120.924 167.032 122.252 167.224 123.372 167.224C126.332 167.224 128.028 166.328 128.028 163.832C128.028 161.752 126.86 160.792 124.236 160.552C122.124 160.376 121.596 159.864 121.596 158.888C121.596 157.48 122.604 157.064 124.476 157.064C125.5 157.064 126.748 157.24 127.324 157.464L127.708 156.04C126.844 155.768 125.564 155.576 124.476 155.576ZM129.571 163.256H133.219V161.832H129.571V163.256ZM140.122 167V155.416L135.53 157.416L136.01 158.728L138.506 157.592V167H140.122Z" fill="#272727"/>
<path d="M235.212 74.7972C242.941 67.0676 255.473 67.0676 263.203 74.7972C270.932 82.5267 270.932 95.0588 263.203 102.788L239.405 126.586L211.414 98.5946L235.212 74.7972Z" fill="#D5D5D5" stroke="#D5D5D5" stroke-width="2"/>
<path d="M275 181H157V63H203V110C203 123.807 214.193 135 228 135H275V181Z" fill="white" stroke="#D5D5D5" stroke-width="2"/>
<path d="M170.476 155.576C167.548 155.576 165.852 156.52 165.852 159.032C165.852 161.08 167.036 161.832 169.612 162.04C171.788 162.232 172.3 162.936 172.3 163.912C172.3 165.336 171.212 165.736 169.34 165.736C168.348 165.736 167.132 165.56 166.444 165.336L166.044 166.744C166.924 167.032 168.252 167.224 169.372 167.224C172.332 167.224 174.028 166.328 174.028 163.832C174.028 161.752 172.86 160.792 170.236 160.552C168.124 160.376 167.596 159.864 167.596 158.888C167.596 157.48 168.604 157.064 170.476 157.064C171.5 157.064 172.748 157.24 173.324 157.464L173.708 156.04C172.844 155.768 171.564 155.576 170.476 155.576ZM175.571 163.256H179.219V161.832H175.571V163.256ZM182.906 165.608C187.77 162.152 188.618 161.064 188.618 158.776C188.618 156.36 187.306 155.576 184.554 155.576C183.418 155.576 182.186 155.784 181.242 156.056C181.354 156.536 181.482 157 181.61 157.48C182.202 157.24 183.514 157.048 184.458 157.048C186.202 157.048 186.906 157.448 186.906 158.888C186.906 160.68 186.538 161.176 180.73 165.704V167H188.554V165.608H182.906Z" fill="#272727"/>
<rect x="417" width="64" height="8" fill="#F7F7F7"/>
<rect x="294" width="64" height="8" fill="#F7F7F7"/>
<rect x="171" width="64" height="8" fill="#F7F7F7"/>
<rect x="48" width="64" height="8" fill="#F7F7F7"/>
<rect x="396" y="684" width="96" height="8" fill="#F7F7F7"/>
<path d="M392 685.063L475.006 637L479 643.937L395.994 692L392 685.063Z" fill="#D5D5D5"/>
<defs>
<clipPath id="clip0">
<rect width="120" height="120" fill="white" transform="translate(348 372)"/>
</clipPath>
<clipPath id="clip1">
<rect width="120" height="120" fill="white" transform="translate(348 186)"/>
</clipPath>
<clipPath id="clip2">
<rect width="120" height="120" fill="white" transform="translate(348 62)"/>
</clipPath>
</defs>
</svg>
