<svg width="608" height="692" viewBox="0 0 608 692" fill="none" xmlns="http://www.w3.org/2000/svg">
<mask id="path-1-inside-1" fill="white">
<path d="M0 0H608V692H0V0Z"/>
</mask>
<path d="M0 0H608V692H0V0Z" fill="#F7F7F7"/>
<path d="M0 0V-8H-8V0H0ZM608 0H616V-8H608V0ZM608 692V700H616V692H608ZM0 692H-8V700H0V692ZM0 8H608V-8H0V8ZM600 0V692H616V0H600ZM608 684H0V700H608V684ZM8 692V0H-8V692H8Z" fill="#D5D5D5" mask="url(#path-1-inside-1)"/>
<path d="M67.1419 423.556C59.2171 431.481 46.3684 431.481 38.4436 423.556C30.5188 415.632 30.5188 402.783 38.4436 394.858L62.5946 370.707L91.2929 399.405L67.1419 423.556Z" fill="#D5D5D5" stroke="#D5D5D5"/>
<rect x="93" y="459" width="118" height="58" transform="rotate(-90 93 459)" fill="white" stroke="#D5D5D5" stroke-width="2"/>
<path d="M123.78 443.496C122.836 440.328 121.476 436.568 120.34 433.848H118.532C119.876 436.888 121.492 441.368 122.628 445H124.74C126.26 441.48 127.764 437.384 128.884 433.848H127.204C126.244 436.952 125.076 440.392 123.78 443.496ZM129.571 441.256H133.219V439.832H129.571V441.256ZM140.122 439.048C142.106 438.872 142.49 437.768 142.49 436.36C142.49 434.456 141.466 433.576 138.346 433.576C137.066 433.576 135.786 433.8 134.858 434.008L135.21 435.4C135.946 435.16 137.194 435.016 138.154 435.016C140.25 435.016 140.794 435.464 140.794 436.632C140.794 437.928 140.122 438.408 138.474 438.408H137.066V439.768H138.49C140.218 439.768 140.954 440.344 140.954 441.8C140.954 443.256 140.41 443.784 138.09 443.784C137.114 443.784 135.914 443.672 135.098 443.432L134.762 444.792C135.738 445.016 137.146 445.224 138.298 445.224C141.37 445.224 142.714 444.408 142.714 441.96C142.714 440.36 142.234 439.144 140.122 439.048Z" fill="#272727"/>
<path d="M367.142 423.556C359.217 431.481 346.368 431.481 338.444 423.556C330.519 415.632 330.519 402.783 338.444 394.858L362.595 370.707L391.293 399.405L367.142 423.556Z" fill="#D5D5D5" stroke="#D5D5D5"/>
<rect x="393" y="459" width="118" height="58" transform="rotate(-90 393 459)" fill="white" stroke="#D5D5D5" stroke-width="2"/>
<path d="M423.78 443.496C422.836 440.328 421.476 436.568 420.34 433.848H418.532C419.876 436.888 421.492 441.368 422.628 445H424.74C426.26 441.48 427.764 437.384 428.884 433.848H427.204C426.244 436.952 425.076 440.392 423.78 443.496ZM429.571 441.256H433.219V439.832H429.571V441.256ZM443.354 433.848H435.13V435.24H441.178C439.738 437.4 437.834 441.592 436.586 445H438.442C439.53 441.816 441.738 436.984 443.354 434.376V433.848Z" fill="#272727"/>
<path d="M367.142 299.556C359.217 307.481 346.368 307.481 338.444 299.556C330.519 291.632 330.519 278.783 338.444 270.858L362.595 246.707L391.293 275.405L367.142 299.556Z" fill="#D5D5D5" stroke="#D5D5D5"/>
<rect x="393" y="335" width="118" height="58" transform="rotate(-90 393 335)" fill="white" stroke="#D5D5D5" stroke-width="2"/>
<path d="M423.78 319.496C422.836 316.328 421.476 312.568 420.34 309.848H418.532C419.876 312.888 421.492 317.368 422.628 321H424.74C426.26 317.48 427.764 313.384 428.884 309.848H427.204C426.244 312.952 425.076 316.392 423.78 319.496ZM429.571 317.256H433.219V315.832H429.571V317.256ZM442.81 310.024C441.962 309.768 440.81 309.576 439.834 309.576C436.41 309.576 434.842 310.792 434.842 315.352C434.842 319.912 435.978 321.224 439.082 321.224C442.01 321.224 443.178 320.392 443.178 317.656C443.178 315.192 442.154 314.2 439.066 314.2C438.378 314.2 437.338 314.28 436.57 314.424C436.714 311.608 437.658 311.064 439.85 311.064C440.778 311.064 441.77 311.224 442.41 311.464L442.81 310.024ZM436.554 315.816C437.29 315.672 438.25 315.592 439.114 315.592C441.002 315.592 441.466 316.2 441.466 317.784C441.466 319.24 441.034 319.784 439.082 319.784C437.402 319.784 436.602 319.144 436.554 315.816Z" fill="#272727"/>
<path d="M367.142 123.556C359.217 131.481 346.368 131.481 338.444 123.556C330.519 115.632 330.519 102.783 338.444 94.8581L362.595 70.7071L391.293 99.4054L367.142 123.556Z" fill="#D5D5D5" stroke="#D5D5D5"/>
<rect x="393" y="159" width="118" height="58" transform="rotate(-90 393 159)" fill="white" stroke="#D5D5D5" stroke-width="2"/>
<path d="M423.858 143.496C422.914 140.328 421.554 136.568 420.418 133.848H418.61C419.954 136.888 421.57 141.368 422.706 145H424.818C426.338 141.48 427.842 137.384 428.962 133.848H427.282C426.322 136.952 425.154 140.392 423.858 143.496ZM429.649 141.256H433.297V139.832H429.649V141.256ZM439.976 140.6H436.424C437.112 139.352 438.68 136.76 439.976 135.128V140.6ZM441.544 133.848H439.224C437.56 136.056 435.48 139.448 434.36 141.496V141.944H439.976V145H441.544V141.944H443.08V140.6H441.544V133.848Z" fill="#272727"/>
<g clip-path="url(#clip0)">
<path d="M540.858 76.4436C548.783 68.5188 561.632 68.5188 569.556 76.4436C577.481 84.3684 577.481 97.2171 569.556 105.142L545.405 129.293L516.707 100.595L540.858 76.4436Z" fill="#D5D5D5" stroke="#D5D5D5"/>
<path d="M515 41V159H457V41H515Z" fill="white" stroke="#D5D5D5" stroke-width="2"/>
<path d="M469.78 63.496C468.836 60.328 467.476 56.568 466.34 53.848H464.532C465.876 56.888 467.492 61.368 468.628 65H470.74C472.26 61.48 473.764 57.384 474.884 53.848H473.204C472.244 56.952 471.076 60.392 469.78 63.496ZM475.571 61.256H479.219V59.832H475.571V61.256ZM483.082 55.24H488.122V53.848H481.514V59.848C482.282 59.688 483.386 59.592 484.346 59.592C486.49 59.592 486.97 60.12 486.97 61.784C486.97 63.272 486.442 63.784 484.17 63.784C483.194 63.784 482.138 63.672 481.354 63.432L481.002 64.792C481.946 65.016 483.194 65.224 484.362 65.224C487.466 65.224 488.73 64.392 488.73 61.656C488.73 59.192 487.722 58.2 484.65 58.2C484.09 58.2 483.562 58.232 483.082 58.28V55.24Z" fill="#272727"/>
</g>
<path d="M67.1419 123.556C59.2171 131.481 46.3684 131.481 38.4436 123.556C30.5188 115.632 30.5188 102.783 38.4436 94.8581L62.5946 70.7071L91.2929 99.4054L67.1419 123.556Z" fill="#D5D5D5" stroke="#D5D5D5"/>
<rect x="93" y="159" width="118" height="58" transform="rotate(-90 93 159)" fill="white" stroke="#D5D5D5" stroke-width="2"/>
<path d="M123.78 143.496C122.836 140.328 121.476 136.568 120.34 133.848H118.532C119.876 136.888 121.492 141.368 122.628 145H124.74C126.26 141.48 127.764 137.384 128.884 133.848H127.204C126.244 136.952 125.076 140.392 123.78 143.496ZM129.571 141.256H133.219V139.832H129.571V141.256ZM140.122 145V133.416L135.53 135.416L136.01 136.728L138.506 135.592V145H140.122Z" fill="#272727"/>
<g clip-path="url(#clip1)">
<path d="M240.858 76.4436C248.783 68.5188 261.632 68.5188 269.556 76.4436C277.481 84.3684 277.481 97.2171 269.556 105.142L245.405 129.293L216.707 100.595L240.858 76.4436Z" fill="#D5D5D5" stroke="#D5D5D5"/>
<path d="M215 41V159H157V41H215Z" fill="white" stroke="#D5D5D5" stroke-width="2"/>
<path d="M169.78 63.496C168.836 60.328 167.476 56.568 166.34 53.848H164.532C165.876 56.888 167.492 61.368 168.628 65H170.74C172.26 61.48 173.764 57.384 174.884 53.848H173.204C172.244 56.952 171.076 60.392 169.78 63.496ZM175.571 61.256H179.219V59.832H175.571V61.256ZM182.906 63.608C187.77 60.152 188.618 59.064 188.618 56.776C188.618 54.36 187.306 53.576 184.554 53.576C183.418 53.576 182.186 53.784 181.242 54.056C181.354 54.536 181.482 55 181.61 55.48C182.202 55.24 183.514 55.048 184.458 55.048C186.202 55.048 186.906 55.448 186.906 56.888C186.906 58.68 186.538 59.176 180.73 63.704V65H188.554V63.608H182.906Z" fill="#272727"/>
</g>
<path d="M493 508V500H608V508H493Z" fill="#D5D5D5"/>
<path d="M300 500V0H308V500H300Z" fill="#D5D5D5"/>
<path d="M215 508V500H393V508H215Z" fill="#D5D5D5"/>
<path d="M0 508V500H115V508H0Z" fill="#D5D5D5"/>
<rect x="488" width="88" height="8" fill="#F7F7F7"/>
<rect x="336" width="88" height="8" fill="#F7F7F7"/>
<rect x="184" width="88" height="8" fill="#F7F7F7"/>
<rect x="32" width="88" height="8" fill="#F7F7F7"/>
<rect x="397" y="684" width="96" height="8" fill="#F7F7F7"/>
<path d="M393 685.063L476.006 637L480 643.937L396.994 692L393 685.063Z" fill="#D5D5D5"/>
<defs>
<clipPath id="clip0">
<rect width="120" height="120" fill="white" transform="translate(456 40)"/>
</clipPath>
<clipPath id="clip1">
<rect width="120" height="120" fill="white" transform="translate(156 40)"/>
</clipPath>
</defs>
</svg>
