<svg width="530" height="692" viewBox="0 0 530 692" fill="none" xmlns="http://www.w3.org/2000/svg">
<mask id="path-1-inside-1" fill="white">
<path d="M0 0H530V692H0V0Z"/>
</mask>
<path d="M0 0H530V692H0V0Z" fill="#F7F7F7"/>
<path d="M0 0V-8H-8V0H0ZM530 0H538V-8H530V0ZM530 692V700H538V692H530ZM0 692H-8V700H0V692ZM0 8H530V-8H0V8ZM522 0V692H538V0H522ZM530 684H0V700H530V684ZM8 692V0H-8V692H8Z" fill="#D5D5D5" mask="url(#path-1-inside-1)"/>
<path d="M67.1419 123.556C59.2171 131.481 46.3684 131.481 38.4436 123.556C30.5188 115.632 30.5188 102.783 38.4436 94.8581L62.5946 70.7071L91.2929 99.4054L67.1419 123.556Z" fill="#D5D5D5" stroke="#D5D5D5"/>
<rect x="93" y="159" width="118" height="58" transform="rotate(-90 93 159)" fill="white" stroke="#D5D5D5" stroke-width="2"/>
<path d="M121.526 136.424C122.15 138.904 122.934 142.056 123.494 145H125.574C126.774 141.48 127.958 137.384 128.838 133.848H127.174C126.454 136.968 125.67 139.784 124.582 143.096C124.086 140.44 123.014 136.472 122.31 133.848H120.742C120.214 136.504 119.078 140.536 118.31 143.096C117.526 139.752 116.614 136.568 115.702 133.848H113.91C114.998 136.888 116.23 141.352 117.174 145H119.238C120.118 142.088 121.03 138.92 121.526 136.424ZM129.571 141.256H133.219V139.832H129.571V141.256ZM140.122 145V133.416L135.53 135.416L136.01 136.728L138.506 135.592V145H140.122Z" fill="#272727"/>
<g clip-path="url(#clip0)">
<path d="M192.444 46.4436C200.368 38.5188 213.217 38.5188 221.142 46.4436L245.293 70.5946L216.595 99.2929L192.444 75.1419C184.519 67.2171 184.519 54.3684 192.444 46.4436Z" fill="#D5D5D5" stroke="#D5D5D5"/>
<rect x="157" y="101" width="118" height="58" fill="white" stroke="#D5D5D5" stroke-width="2"/>
<path d="M172.526 136.424C173.15 138.904 173.934 142.056 174.494 145H176.574C177.774 141.48 178.958 137.384 179.838 133.848H178.174C177.454 136.968 176.67 139.784 175.582 143.096C175.086 140.44 174.014 136.472 173.31 133.848H171.742C171.214 136.504 170.078 140.536 169.31 143.096C168.526 139.752 167.614 136.568 166.702 133.848H164.91C165.998 136.888 167.23 141.352 168.174 145H170.238C171.118 142.088 172.03 138.92 172.526 136.424ZM180.571 141.256H184.219V139.832H180.571V141.256ZM187.906 143.608C192.77 140.152 193.618 139.064 193.618 136.776C193.618 134.36 192.306 133.576 189.554 133.576C188.418 133.576 187.186 133.784 186.242 134.056C186.354 134.536 186.482 135 186.61 135.48C187.202 135.24 188.514 135.048 189.458 135.048C191.202 135.048 191.906 135.448 191.906 136.888C191.906 138.68 191.538 139.176 185.73 143.704V145H193.554V143.608H187.906Z" fill="#272727"/>
</g>
<path d="M72.7884 447.203C65.0588 454.932 52.5267 454.932 44.7972 447.203C37.0676 439.473 37.0676 426.941 44.7972 419.212L68.5946 395.414L96.5858 423.405L72.7884 447.203Z" fill="#D5D5D5" stroke="#D5D5D5" stroke-width="2"/>
<path d="M33 341H151V459H105V412C105 398.193 93.8071 387 80 387H33V341Z" fill="white" stroke="#D5D5D5" stroke-width="2"/>
<path d="M121.526 356.424C122.15 358.904 122.934 362.056 123.494 365H125.574C126.774 361.48 127.958 357.384 128.838 353.848H127.174C126.454 356.968 125.67 359.784 124.582 363.096C124.086 360.44 123.014 356.472 122.31 353.848H120.742C120.214 356.504 119.078 360.536 118.31 363.096C117.526 359.752 116.614 356.568 115.702 353.848H113.91C114.998 356.888 116.23 361.352 117.174 365H119.238C120.118 362.088 121.03 358.92 121.526 356.424ZM129.571 361.256H133.219V359.832H129.571V361.256ZM143.354 353.848H135.13V355.24H141.178C139.738 357.4 137.834 361.592 136.586 365H138.442C139.53 361.816 141.738 356.984 143.354 354.376V353.848Z" fill="#272727"/>
<path d="M263.203 447.203C255.473 454.932 242.941 454.932 235.212 447.203L211.414 423.405L239.405 395.414L263.203 419.212C270.932 426.941 270.932 439.473 263.203 447.203Z" fill="#D5D5D5" stroke="#D5D5D5" stroke-width="2"/>
<path d="M157 459V341H275V387H228C214.193 387 203 398.193 203 412V459H157Z" fill="white" stroke="#D5D5D5" stroke-width="2"/>
<path d="M172.526 356.424C173.15 358.904 173.934 362.056 174.494 365H176.574C177.774 361.48 178.958 357.384 179.838 353.848H178.174C177.454 356.968 176.67 359.784 175.582 363.096C175.086 360.44 174.014 356.472 173.31 353.848H171.742C171.214 356.504 170.078 360.536 169.31 363.096C168.526 359.752 167.614 356.568 166.702 353.848H164.91C165.998 356.888 167.23 361.352 168.174 365H170.238C171.118 362.088 172.03 358.92 172.526 356.424ZM180.571 361.256H184.219V359.832H180.571V361.256ZM189.858 363.88C188.034 363.88 187.49 363.32 187.49 361.848C187.49 360.312 188.146 359.736 189.858 359.736C191.57 359.736 192.226 360.312 192.226 361.848C192.226 363.32 191.682 363.88 189.858 363.88ZM189.858 358.44C188.354 358.44 187.714 357.912 187.714 356.6C187.714 355.384 188.258 354.936 189.858 354.936C191.458 354.936 192.002 355.384 192.002 356.6C192.002 357.912 191.378 358.44 189.858 358.44ZM189.858 365.224C192.69 365.224 193.938 364.392 193.938 361.96C193.938 360.36 193.458 359.144 191.346 359.048C193.346 358.872 193.682 357.752 193.682 356.36C193.682 354.488 192.722 353.576 189.858 353.576C186.994 353.576 186.05 354.488 186.05 356.36C186.05 357.752 186.386 358.872 188.386 359.048C186.258 359.144 185.778 360.36 185.778 361.96C185.778 364.392 187.042 365.224 189.858 365.224Z" fill="#272727"/>
<path d="M44.7972 228.797C52.5267 221.068 65.0588 221.068 72.7884 228.797L96.5858 252.595L68.5946 280.586L44.7972 256.788C37.0676 249.059 37.0676 236.527 44.7972 228.797Z" fill="#D5D5D5" stroke="#D5D5D5" stroke-width="2"/>
<path d="M151 217V335H33V289H80C93.8071 289 105 277.807 105 264V217H151Z" fill="white" stroke="#D5D5D5" stroke-width="2"/>
<path d="M121.526 312.424C122.15 314.904 122.934 318.056 123.494 321H125.574C126.774 317.48 127.958 313.384 128.838 309.848H127.174C126.454 312.968 125.67 315.784 124.582 319.096C124.086 316.44 123.014 312.472 122.31 309.848H120.742C120.214 312.504 119.078 316.536 118.31 319.096C117.526 315.752 116.614 312.568 115.702 309.848H113.91C114.998 312.888 116.23 317.352 117.174 321H119.238C120.118 318.088 121.03 314.92 121.526 312.424ZM129.571 317.256H133.219V315.832H129.571V317.256ZM137.082 311.24H142.122V309.848H135.514V315.848C136.282 315.688 137.386 315.592 138.346 315.592C140.49 315.592 140.97 316.12 140.97 317.784C140.97 319.272 140.442 319.784 138.17 319.784C137.194 319.784 136.138 319.672 135.354 319.432L135.002 320.792C135.946 321.016 137.194 321.224 138.362 321.224C141.466 321.224 142.73 320.392 142.73 317.656C142.73 315.192 141.722 314.2 138.65 314.2C138.09 314.2 137.562 314.232 137.082 314.28V311.24Z" fill="#272727"/>
<path d="M235.212 228.797C242.941 221.068 255.473 221.068 263.203 228.797C270.932 236.527 270.932 249.059 263.203 256.788L239.405 280.586L211.414 252.595L235.212 228.797Z" fill="#D5D5D5" stroke="#D5D5D5" stroke-width="2"/>
<path d="M275 335H157V217H203V264C203 277.807 214.193 289 228 289H275V335Z" fill="white" stroke="#D5D5D5" stroke-width="2"/>
<path d="M172.526 312.424C173.15 314.904 173.934 318.056 174.494 321H176.574C177.774 317.48 178.958 313.384 179.838 309.848H178.174C177.454 312.968 176.67 315.784 175.582 319.096C175.086 316.44 174.014 312.472 173.31 309.848H171.742C171.214 312.504 170.078 316.536 169.31 319.096C168.526 315.752 167.614 312.568 166.702 309.848H164.91C165.998 312.888 167.23 317.352 168.174 321H170.238C171.118 318.088 172.03 314.92 172.526 312.424ZM180.571 317.256H184.219V315.832H180.571V317.256ZM193.81 310.024C192.962 309.768 191.81 309.576 190.834 309.576C187.41 309.576 185.842 310.792 185.842 315.352C185.842 319.912 186.978 321.224 190.082 321.224C193.01 321.224 194.178 320.392 194.178 317.656C194.178 315.192 193.154 314.2 190.066 314.2C189.378 314.2 188.338 314.28 187.57 314.424C187.714 311.608 188.658 311.064 190.85 311.064C191.778 311.064 192.77 311.224 193.41 311.464L193.81 310.024ZM187.554 315.816C188.29 315.672 189.25 315.592 190.114 315.592C192.002 315.592 192.466 316.2 192.466 317.784C192.466 319.24 192.034 319.784 190.082 319.784C188.402 319.784 187.602 319.144 187.554 315.816Z" fill="#272727"/>
<path d="M485.203 271.203C477.473 278.932 464.941 278.932 457.212 271.203L433.414 247.405L461.405 219.414L485.203 243.212C492.932 250.941 492.932 263.473 485.203 271.203Z" fill="#D5D5D5" stroke="#D5D5D5" stroke-width="2"/>
<path d="M379 283V165H497V211H450C436.193 211 425 222.193 425 236V283H379Z" fill="white" stroke="#D5D5D5" stroke-width="2"/>
<path d="M394.604 180.424C395.228 182.904 396.012 186.056 396.572 189H398.652C399.852 185.48 401.036 181.384 401.916 177.848H400.252C399.532 180.968 398.748 183.784 397.66 187.096C397.164 184.44 396.092 180.472 395.388 177.848H393.82C393.292 180.504 392.156 184.536 391.388 187.096C390.604 183.752 389.692 180.568 388.78 177.848H386.988C388.076 180.888 389.308 185.352 390.252 189H392.316C393.196 186.088 394.108 182.92 394.604 180.424ZM402.649 185.256H406.297V183.832H402.649V185.256ZM412.976 184.6H409.424C410.112 183.352 411.68 180.76 412.976 179.128V184.6ZM414.544 177.848H412.224C410.56 180.056 408.48 183.448 407.36 185.496V185.944H412.976V189H414.544V185.944H416.08V184.6H414.544V177.848Z" fill="#272727"/>
<path d="M457.212 52.7972C464.941 45.0676 477.473 45.0676 485.203 52.7972C492.932 60.5267 492.932 73.0588 485.203 80.7884L461.405 104.586L433.414 76.5946L457.212 52.7972Z" fill="#D5D5D5" stroke="#D5D5D5" stroke-width="2"/>
<path d="M497 159H379V41H425V88C425 101.807 436.193 113 450 113H497V159Z" fill="white" stroke="#D5D5D5" stroke-width="2"/>
<path d="M394.526 136.424C395.15 138.904 395.934 142.056 396.494 145H398.574C399.774 141.48 400.958 137.384 401.838 133.848H400.174C399.454 136.968 398.67 139.784 397.582 143.096C397.086 140.44 396.014 136.472 395.31 133.848H393.742C393.214 136.504 392.078 140.536 391.31 143.096C390.526 139.752 389.614 136.568 388.702 133.848H386.91C387.998 136.888 389.23 141.352 390.174 145H392.238C393.118 142.088 394.03 138.92 394.526 136.424ZM402.571 141.256H406.219V139.832H402.571V141.256ZM413.122 139.048C415.106 138.872 415.49 137.768 415.49 136.36C415.49 134.456 414.466 133.576 411.346 133.576C410.066 133.576 408.786 133.8 407.858 134.008L408.21 135.4C408.946 135.16 410.194 135.016 411.154 135.016C413.25 135.016 413.794 135.464 413.794 136.632C413.794 137.928 413.122 138.408 411.474 138.408H410.066V139.768H411.49C413.218 139.768 413.954 140.344 413.954 141.8C413.954 143.256 413.41 143.784 411.09 143.784C410.114 143.784 408.914 143.672 408.098 143.432L407.762 144.792C408.738 145.016 410.146 145.224 411.298 145.224C414.37 145.224 415.714 144.408 415.714 141.96C415.714 140.36 415.234 139.144 413.122 139.048Z" fill="#272727"/>
<path d="M425 508V500H530V508H425Z" fill="#D5D5D5"/>
<path d="M201 508V500H329V508H201Z" fill="#D5D5D5"/>
<path d="M0 508V500H105V508H0Z" fill="#D5D5D5"/>
<rect x="417" width="64" height="8" fill="#F7F7F7"/>
<rect x="294" width="64" height="8" fill="#F7F7F7"/>
<rect x="171" width="64" height="8" fill="#F7F7F7"/>
<rect x="48" width="64" height="8" fill="#F7F7F7"/>
<rect width="96" height="8" transform="matrix(-1 0 0 1 425 684)" fill="#F7F7F7"/>
<path d="M429 685.063L345.994 637L342 643.937L425.006 692L429 685.063Z" fill="#D5D5D5"/>
<defs>
<clipPath id="clip0">
<rect width="120" height="120" fill="white" transform="translate(156 40)"/>
</clipPath>
</defs>
</svg>
